<svg enable-background="new 0 0 128 128" height="128" viewBox="15 15 96 96" width="128" xmlns="http://www.w3.org/2000/svg" xmlns:xlink="http://www.w3.org/1999/xlink"><linearGradient id="a" gradientUnits="userSpaceOnUse" x1="63.999699" x2="63.999699" y1="7.0336" y2="120.7894"><stop offset="0" stop-color="#4387fd"/><stop offset="1" stop-color="#4683ea"/></linearGradient><clipPath id="b"><path d="m27.7911 115.2166-26.2505-45.4673c-2.0541-3.5578-2.0541-7.9412 0-11.499l26.2505-45.4672c2.0541-3.5578 5.8502-5.7495 9.9585-5.7495h52.501c4.1082 0 7.9044 2.1917 9.9585 5.7495l26.2505 45.4672c2.0541 3.5578 2.0541 7.9412 0 11.499l-26.2505 45.4672c-2.0541 3.5578-5.8502 5.7495-9.9585 5.7495h-52.501c-4.1083.0001-7.9044-2.1916-9.9585-5.7494z" height="128" width="128"/></clipPath><g transform="matrix(.5 0 0 .5 31.336638 15.154304)"><path d="m27.7906 115.2166-26.2506-45.4673c-2.0541-3.5578-2.0541-7.9412 0-11.499l26.2506-45.4672c2.0541-3.5578 5.8503-5.7495 9.9585-5.7495h52.5012c4.1082 0 7.9044 2.1917 9.9585 5.7495l26.2506 45.4672c2.0541 3.5578 2.0541 7.9412 0 11.499l-26.2506 45.4672c-2.0541 3.5578-5.8503 5.7495-9.9585 5.7495h-52.5012c-4.1082.0001-7.9043-2.1916-9.9585-5.7494z" fill="url(#a)"/><path clip-path="url(#b)" d="m100.5729 61.7707-34.8906-34.8906-7.1621 10.4733 6.0006 6.0006-15.2708 5.5625-5.9668 15.1791-5.8561-5.8561-10.5496 9.2656 54.3906 54.3906 16.399.1458 23.536-40.1197-19.9375-19.9375z" opacity=".07"/><g fill="#fff"><path d="m63.9988 40.9577c-12.7278 0-23.0452 10.3167-23.0452 23.0464 0 12.726 10.3174 23.0463 23.0452 23.0463 12.7273 0 23.0446-10.3203 23.0446-23.0463 0-12.7297-10.3173-23.0464-23.0446-23.0464m0 40.531c-9.6584 0-17.4876-7.8286-17.4876-17.4846 0-9.6584 7.8291-17.4877 17.4876-17.4877 9.6578 0 17.4858 7.8292 17.4858 17.4877 0 9.656-7.828 17.4846-17.4858 17.4846"/><path d="m100.1431 61.274-9.6079-3.0195c.3997 1.8539.615 3.7759.615 5.7478 0 1.3791-.1047 2.7337-.3021 4.0569h9.295c.8587-.2515 1.4327-.7846 1.4327-1.5765v-3.6345c.0001-.7907-.574-1.3388-1.4327-1.5742"/><path d="m63.9923 36.8497c1.9303 0 3.8119.2046 5.6285.5884l-3.4443-9.5729c-.2515-.8606-.7852-1.434-1.5765-1.434h-1.4392c-.7913 0-1.3407.5734-1.5761 1.434l-2.9924 9.5236c1.7449-.352 3.5502-.5391 5.4-.5391"/><path d="m36.8468 64.0023c0-1.9719.2154-3.8932.6145-5.7478l-9.6073 3.0195c-.8587.2354-1.4322.7835-1.4322 1.5754v3.6344c0 .7907.5735 1.3238 1.4322 1.5753h9.2955c-.198-1.3225-.3027-2.6777-.3027-4.0568"/><path d="m72.2276 56.4819-2.1802 2.1794v-.0048c-1.5651-1.5639-3.6549-2.4274-5.8687-2.4274-2.2192 0-4.303.8659-5.8704 2.4322-3.2362 3.2355-3.2362 8.5037 0 11.7399l-2.1802 2.1783c2.0627 2.0609 4.9096 3.3383 8.0483 3.3383 6.2803 0 11.3896-5.1081 11.3896-11.3895 0-3.14-1.277-5.9862-3.3384-8.0464m-4.4992 11.2523c-1.0278 1.0302-2.3799 1.5459-3.7284 1.5459-1.3526 0-2.7012-.5156-3.7313-1.5459-2.0616-2.0615-2.0616-5.4018 0-7.4639 1.0301-1.0314 2.3787-1.544 3.7313-1.544 1.3485 0 2.7006.5127 3.7284 1.544 2.0616 2.0609 2.0616 5.4024 0 7.4639"/></g></g><g transform="matrix(.015625 0 0 -.015625 11.956093 110.74645)"><path d="m761 1673c-15-30-321-795-321-804 0-5 12-9 28-9 26 0 30 8 83 143l57 142 169 3 170 2 55-142c54-139 56-143 87-146 17-2 31-1 31 2s-63 167-141 363c-77 197-150 382-161 411-20 53-40 66-57 35zm109-321c29-78 51-144 48-147s-68-4-145-3l-140 3 68 175c37 96 70 184 74 195 4 16 9 9 23-30 10-27 42-114 72-193z"/><path d="m2870 1270v-410h225 225v25 25l-196 2-195 3v175 175l186 3c186 2 186 2 183 25-3 22-6 22-186 27l-183 5v150 150l195 3 196 2v25 25h-225-225z"/><path d="m1383 1469c-18-5-49-25-69-44s-38-35-39-35-5 18-9 40c-5 31-11 40-26 40-20 0-20-8-20-445v-445h25 26l-3 185c-2 102 0 185 3 185 4 0 14-12 24-26 45-69 195-95 290-50 59 28 74 43 112 116 25 50 28 64 28 165 0 64-6 130-14 157-17 59-72 125-125 149-45 20-147 24-203 8zm204-67c52-37 77-102 81-214 8-192-59-288-201-288-79 0-136 32-167 95-22 45-25 62-25 170s3 125 25 170c35 71 89 97 185 93 53-2 78-9 102-26z"/><path d="m2045 1461c-22-10-51-30-64-45-33-35-41-33-41 14 0 36-2 40-25 40h-25v-446-445l28 3 27 3-2 184-3 185 38-37c66-64 169-84 265-51 62 21 122 89 144 163 23 77 22 210-2 286-23 72-84 138-141 154-60 17-154 13-199-8zm188-45c41-16 81-63 98-113 8-22 14-82 14-139 0-92-2-105-30-160-39-75-85-104-168-104-32 0-72 6-90 14-42 17-83 66-97 114-13 48-13 226 1 275 13 49 63 105 103 116 47 14 133 13 169-3z"/><path d="m3658 1470c-41-12-95-48-103-67-5-15-7-15-15-3-6 8-10 27-10 43 0 22-4 27-25 27h-25v-305-305h30 30v206c0 236 6 269 61 319 42 38 97 51 180 43 59-6 104-42 119-97 5-20 10-134 10-253v-218h25 25v233c-1 291-11 325-105 368-42 20-147 24-197 9z"/><path d="m4247 1466c-134-49-166-219-62-323l43-43-34-34c-43-43-46-88-8-127l26-27-45-20c-70-31-104-100-88-174 20-89 98-131 241-131 194 0 293 68 293 201 0 61-20 95-74 127-28 16-59 21-165 25-88 4-137 10-148 19-24 20-19 65 9 99 23 27 31 30 103 34 91 5 128 23 176 81 28 35 31 45 31 111 0 52-5 79-17 99-28 41-23 47 37 47 41 0 57 4 62 15 3 9 4 17 2 19s-80 6-174 9c-133 5-178 4-208-7zm173-46c49-25 73-69 73-135 0-95-46-144-142-152-103-8-171 52-171 152 0 123 126 193 240 135zm62-540c56-16 81-54 75-113-8-86-68-125-202-134-161-11-241 44-221 151 15 77 71 105 216 106 52 0 112-5 132-10z"/><path d="m5156 1465c-21-7-54-28-72-46l-33-32-7 41c-6 36-10 42-30 42h-24v-305-305h30 30v203c0 111 5 219 11 240 14 51 63 104 107 117 54 15 139 12 176-5 66-31 71-53 74-317l3-238h25 24v238c0 208-3 242-19 277-22 48-44 69-94 90-45 19-149 19-201 0z"/><path d="m5796 1465c-49-17-96-63-132-128-23-43-28-66-32-148-6-117 13-188 65-249 59-69 102-85 218-85 118 1 178 18 183 53 4 26 5 26-66 6-83-24-198-16-250 19-48 31-89 110-94 177l-3 45 219 3 219 2-5 78c-6 92-29 144-88 195-58 49-150 62-234 32zm185-58c38-25 74-91 83-154l6-43h-191-192l7 41c12 76 60 145 116 168 48 19 134 13 171-12z"/><path d="m4740 1165v-305h30 30v305 305h-30-30z"/></g></svg>