<svg height="52" viewBox="0 0 86 52" width="86" xmlns="http://www.w3.org/2000/svg"><g fill="none" fill-rule="evenodd"><g fill="#fff"><path d="m30 37.5559045s.0542986-2.9227387 3.5565611-3.5559045h23.4434389v4.1438442h-23.0443439v2.7729272h19.4904977s2.9565611.1809045 3.5538462 3.4428392v3.8498743s-.1628959 3.375-3.4696833 3.7905151h-23.5303167v-4.1325377h22.9873303v-2.8068467h-19.4416289s-2.6552037-.0226131-3.5457014-3.4626257z"/><path d="m3.9649211 47.8250628h19.0457332v-9.6925251h-19.0457332zm19.1217208-13.8250628h-19.69705501s-3.38958689.678392-3.38958689 3.6689698v10.526382s.45592522 3.8046482 3.52256508 3.8046482h19.88973762s3.5876973-.7490578 3.5876973-3.8046482v-10.187186s-.390793-4.0081658-3.9133581-4.0081658z"/><path d="m86 38.1438442v-4.1438442h-23.4461538c-3.5022625.6331658-3.5538462 3.5559045-3.5538462 3.5559045v4.0420854c.8904977 3.4400126 3.5429864 3.4626257 3.5429864 3.4626257h19.441629v2.8068467h-22.9846154v4.1325377h23.5303167c3.3040724-.4155151 3.4696833-3.7905151 3.4696833-3.7905151v-3.8498743c-.6-3.2619347-3.5565611-3.4428392-3.5565611-3.4428392h-19.4850679v-2.7729272z"/></g><path d="m86 0-4.5542137 11.4136716 4.5542137 12.5863284c-1.3446828-.1888654-2.6921324-.448203-4.0368152-.6821705l-2.5814589-6.9344609-2.6229615 6.3735024c-1.3031803-.2339675-2.5593243-.3044397-3.8569708-.4933051l4.6206178-10.9908386-4.1723902-11.2727273h3.8569708l2.3573451 6.3030303 2.5095212-6.3030303zm-19.2461183 21.7956307c1.1427037.0704722 2.3573451.1409444 3.5194167.2818887v-22.0775194h-3.5194167zm-9.1305621-4.2875264c2.0391588.0479211 4.1059861.2085976 6.1008756.3269908v3.704017c-3.2067641-.2142354-6.4162951-.422833-9.6922301-.4933052v-21.0458069h3.5913545zm-12.3400931-8.97815363h4.9166693v3.74911913h-4.9166693v8.5102184h-3.5194167v-20.7892882h10.0270173v3.7491191h-6.5076006zm-5.8297256-4.78083157h-3.7241627v17.2487667c-1.2118746 0-2.4237492 0-3.5913544.0479211v-17.2966878h-3.7213958v-3.7491191h11.0369129zm-19.6971128 5.04016913c1.3917191 0 3.5221836-.07047216 4.8004623-.07047216v3.74911913c-1.5936982 0-3.4557795 0-4.8004623.0704721v5.5785765c2.1083298-.1409443 4.2166597-.3269908 6.349891-.4002819v3.6081748l-9.9384786.820296v-22.1451727h9.9384786v3.7491191h-6.349891zm-7.0665017 13.66314307c-1.2782787.2339676-2.5814589.3044397-3.92614173.4933051l-4.1032193-12.5609584v13.0993658c-1.28104554.1409443-2.44588392.3269908-3.66052537.5158562v-24h3.41151004l4.66488721 13.615222v-13.615222h3.61348915z" fill="#ec1b2e"/></g></svg>