<svg xmlns="http://www.w3.org/2000/svg" role="img" viewBox="-4.37 -5.12 435.24 298.74"><title>SpinnakerSummit-2021_webgraphics_white-logo-cdcon.svg</title><defs><clipPath id="clip-path"><path d="M109.36427 265.26026c0 10.73756 9.41671 20.15715 20.15679 20.15715h.7258l.40018-.01657h.16966l.38613-.02161h.15633l.394-.03566h.13183l.41892-.04935.09617-.01369.45422-.06267h.04934q.41116-.06645.822-.14552l.15056-.03242a29.77907 29.77907 0 0 0 .66025-.1484l.134-.03278c.233-.06051.46574-.12031.69591-.1891l.05475-.01621c4.79318-1.40551 8.42255-4.48413 11.4576-8.15746-.47114-.70923-.786-1.24052-.934-1.49807l-3.71114-5.80137a34.9357 34.9357 0 0 1-2.99974 3.66756 14.28936 14.28936 0 0 1-5.69981 3.85413 11.01926 11.01926 0 0 1-1.09572.30653c-.38074.08537-.74778.15633-1.1368.20856-.129.01873-.25754.0353-.38865.04935l-.21108.01908c-.1675.0137-.33427.027-.50428.03567h-.7096a9.81168 9.81168 0 0 1-2.12517-.241 11.71913 11.71913 0 0 1-1.56435-.46286 10.11494 10.11494 0 0 1-1.046-.45242c-.34507-.17793-.6851-.35047-1.019-.54786a13.75342 13.75342 0 0 1-3.95535-3.56058c-.23846-.32057-.46286-.65484-.67394-.99739a12.01069 12.01069 0 0 1-.29824-.52265 12.11126 12.11126 0 0 1-.52337-1.09573 10.80557 10.80557 0 0 1 0-8.42291 12.06 12.06 0 0 1 .52337-1.09537 12.2788 12.2788 0 0 1 .29824-.52373c.21108-.34183.43548-.67609.67394-.99667a13.80957 13.80957 0 0 1 3.95535-3.56093c.33391-.197.67394-.38074 1.019-.54787q.51221-.23124 1.046-.411a11.5472 11.5472 0 0 1 1.59713-.47906 9.77009 9.77009 0 0 1 2.12554-.24134h.72328c.16713 0 .33426.022.49851.036l.241.02449.23558.02738c.41639.05475.82161.129 1.21892.22189.19738.04646.39153.09869.58315.15308a11.803 11.803 0 0 1 2.739 1.1973c.34579.20532.68221.4272 1.01648.66818a17.22507 17.22507 0 0 1 1.93932 1.64359q.47113.46032.9394.96965l.01945-.03025a36.94116 36.94116 0 0 1 2.5585 3.2245c1.25709-1.98361 3.15751-4.96355 3.83432-5.9523.27376-.3973.54823-.8.84683-1.20559-3.13121-3.81847-6.89746-6.99-11.92909-8.343h-.036a19.12243 19.12243 0 0 0-.73661-.18334l-.10374-.02485c-.241-.05223-.48483-.10122-.72868-.14552l-.14516-.027c-.27412-.04934-.57272-.09365-.86593-.13183h-.03278c-.15884-.02161-.318-.03818-.47942-.05439h-.09005l-.433-.03818h-.13147l-.40523-.02773h-.15633l-.41062-.01658h-.818c-10.70009-.00108-20.04836 9.39149-20.04836 20.09663" class="cls-1"/></clipPath><clipPath id="clip-path-2"><path d="M130.18094 277.33993zm.04971 0h.00252c.17 0 .33678-.022.50392-.03566-.16714.01369-.33391.02737-.50644.03566" class="cls-1"/></clipPath><clipPath id="clip-path-3"><path d="M139.63691 258.13046l.01873-.02953z" class="cls-1"/></clipPath><clipPath id="clip-path-4"><path d="M130.118 253.183h-.597H130.181h-.063z" class="cls-1"/></clipPath><clipPath id="clip-path-5"><path d="M159.22674 271.933c-.03566-.03817-.06844-.08212-.1041-.12318-.14516-.16714-.29068-.33427-.43548-.5122-.14516-.178-.26043-.3231-.389-.4852-.12859-.16137-.20567-.25466-.30977-.38864-.46574-.6001-.92859-1.2355-1.39973-1.91736-.16174-.23016-.32311-.46862-.487-.7067-.08789-.13183-.17829-.27412-.27447-.40019-.156-.23557-.31481-.46538-.47366-.70635l-.08213-.12606c-.27375-.41928-.54786-.85189-.84359-1.29529q.68241-1.066 1.34463-2.04917c.44125-.65449.87673-1.28448 1.30969-1.882.4326-.59685.86015-1.16669 1.29239-1.70627.433-.53958.86016-1.04638 1.296-1.52292q.46789-.50951.9394-.96966c.31769-.30941.63575-.59973.961-.87385.32634-.2741.64944-.52841.98371-.76974a13.41125 13.41125 0 0 1 1.79091-1.068c.07708-.03819.1538-.085.23341-.12319l.05187-.02774c.326-.1502.65736-.27375.99451-.39946l.112-.04647c.063-.01944.12859-.03313.19162-.0551a10.07959 10.07959 0 0 1 .77264-.219l.31769-.0796c.35876-.07673.72328-.14516 1.09573-.19451l.23557-.02737.241-.02486c.16426 0 .33139-.027.49852-.0353h.72329a9.87608 9.87608 0 0 1 1.05718.06016 11.11129 11.11129 0 0 1 1.60217.31229c.35623.09869.71248.21359 1.063.348a11.37881 11.37881 0 0 1 1.04638.45169q.51707.25125 1.019.54823c.3339.19739.66276.41638.98009.64331.31807.22729.63035.474.93184.73445a13.53759 13.53759 0 0 1 2.04342 2.1911c.23773.32058.46286.65484.67393.997a11.82861 11.82861 0 0 1 1.22936 2.75589 10.97739 10.97739 0 0 1 .27447 1.19406 10.54013 10.54013 0 0 1 .1639 1.87088c.0162 8.31558-3.714 12.05156-12.07679 12.05156h-.70923c-.16966 0-.33679-.02161-.50391-.03529l-.21108-.0191a8.35469 8.35469 0 0 1-.389-.0497 11.34076 11.34076 0 0 1-2.21306-.5259 11.455 11.455 0 0 1-1.53373-.65447 12.85512 12.85512 0 0 1-1.44657-.871c-.23269-.16137-.46538-.33138-.69554-.5122a19.00491 19.00491 0 0 1-2.00776-1.8327l-.022.02773c-.29033-.30112-.57524-.62206-.86268-.95057m22.75634-44.38454v21.88826a19.77246 19.77246 0 0 0-12.16179-4.33032h-.7204l-.411.01621-.16137.01116-.40559.027h-.13111l-.43332.03818h-.09c-.16137.01657-.32058.03314-.47907.05511h-.036c-.29.03566-.57813.08249-.86269.13184l-.14515.027c-.24639.04393-.48771.09329-.72833.14515l-.10409.02449c-7.01742 1.58633-11.63878 6.66154-15.4515 12.21367-.16173.23593-.31229.474-.4715.70994-.52013.79137-1.26214 1.94724-1.99659 3.09772-.96389 1.50924-1.917 3.01308-2.29772 3.62073l4.76869 7.43165s5.08638 9.35655 14.26248 11.90424l.05475.01622c.23016.06843.46285.12894.6959.18874l.134.03278c.21612.05475.43836.10157.66025.148l.15056.03278q.41063.07835.82162.14552h.04934l.45493.06267.09545.014.41927.04935h.13148l.39442.0353h.156l.3865.022h.17l.39945.01621h.72617c12.64914 0 19.96768-7.15969 20.15138-19.66908v-38.1066z" class="cls-1"/></clipPath><style>.cls-1{fill:#fff}.cls-7{fill:none}</style></defs><path d="M131.32353 277.23309c.38865-.05222.76686-.12066 1.13643-.20818.36992-.08753.72868-.18912 1.09572-.3069a14.28826 14.28826 0 0 0 5.69981-3.85378l-.02161-.02737a13.27732 13.27732 0 0 1-7.91035 4.39623" class="cls-1"/><path d="M109.36427 265.26026c0 10.73756 9.41671 20.15715 20.15679 20.15715h.7258l.40018-.01657h.16966l.38613-.02161h.15633l.394-.03566h.13183l.41892-.04935.09617-.01369.45422-.06267h.04934q.41116-.06645.822-.14552l.15056-.03242a29.77907 29.77907 0 0 0 .66025-.1484l.134-.03278c.233-.06051.46574-.12031.69591-.1891l.05475-.01621c4.79318-1.40551 8.42255-4.48413 11.4576-8.15746-.47114-.70923-.786-1.24052-.934-1.49807l-3.71114-5.80137a34.9357 34.9357 0 0 1-2.99974 3.66756 14.28936 14.28936 0 0 1-5.69981 3.85413 11.01926 11.01926 0 0 1-1.09572.30653c-.38074.08537-.74778.15633-1.1368.20856-.129.01873-.25754.0353-.38865.04935l-.21108.01908c-.1675.0137-.33427.027-.50428.03567h-.7096a9.81168 9.81168 0 0 1-2.12517-.241 11.71913 11.71913 0 0 1-1.56435-.46286 10.11494 10.11494 0 0 1-1.046-.45242c-.34507-.17793-.6851-.35047-1.019-.54786a13.75342 13.75342 0 0 1-3.95535-3.56058c-.23846-.32057-.46286-.65484-.67394-.99739a12.01069 12.01069 0 0 1-.29824-.52265 12.11126 12.11126 0 0 1-.52337-1.09573 10.80557 10.80557 0 0 1 0-8.42291 12.06 12.06 0 0 1 .52337-1.09537 12.2788 12.2788 0 0 1 .29824-.52373c.21108-.34183.43548-.67609.67394-.99667a13.80957 13.80957 0 0 1 3.95535-3.56093c.33391-.197.67394-.38074 1.019-.54787q.51221-.23124 1.046-.411a11.5472 11.5472 0 0 1 1.59713-.47906 9.77009 9.77009 0 0 1 2.12554-.24134h.72328c.16713 0 .33426.022.49851.036l.241.02449.23558.02738c.41639.05475.82161.129 1.21892.22189.19738.04646.39153.09869.58315.15308a11.803 11.803 0 0 1 2.739 1.1973c.34579.20532.68221.4272 1.01648.66818a17.22507 17.22507 0 0 1 1.93932 1.64359q.47113.46032.9394.96965l.01945-.03025a36.94116 36.94116 0 0 1 2.5585 3.2245c1.25709-1.98361 3.15751-4.96355 3.83432-5.9523.27376-.3973.54823-.8.84683-1.20559-3.13121-3.81847-6.89746-6.99-11.92909-8.343h-.036a19.12243 19.12243 0 0 0-.73661-.18334l-.10374-.02485c-.241-.05223-.48483-.10122-.72868-.14552l-.14516-.027c-.27412-.04934-.57272-.09365-.86593-.13183h-.03278c-.15884-.02161-.318-.03818-.47942-.05439h-.09005l-.433-.03818h-.13147l-.40523-.02773h-.15633l-.41062-.01658h-.818c-10.70009-.00108-20.04836 9.39149-20.04836 20.09663" class="cls-1"/><g clip-path="url(#clip-path)"><path d="M107.83942 245.2203l39.02192-1.48065 1.57924 41.62005-39.02192 1.48065z" class="cls-1"/></g><path d="M130.18094 277.33993zm.04971 0h.00252c.17 0 .33678-.022.50392-.03566-.16714.01369-.33391.02737-.50644.03566" class="cls-1"/><g clip-path="url(#clip-path-2)"><path d="M130.17914 277.30462l.5566-.02116.00216.05696-.5566.02116z" class="cls-1"/></g><path d="M139.63691 258.13046l.01873-.02953z" class="cls-1"/><g clip-path="url(#clip-path-3)"><path d="M139.63543 258.10143l.01999-.00076.00115.02997-.01999.00077z" class="cls-1"/></g><path d="M130.118 253.183h-.597H130.181h-.063z" class="cls-1"/><g clip-path="url(#clip-path-4)"><path d="M129.52078 253.18348l.65853-.02498.00095.02498-.65853.02499z" class="cls-1"/></g><path d="M159.22674 271.933c-.03566-.03817-.06844-.08212-.1041-.12318-.14516-.16714-.29068-.33427-.43548-.5122-.14516-.178-.26043-.3231-.389-.4852-.12859-.16137-.20567-.25466-.30977-.38864-.46574-.6001-.92859-1.2355-1.39973-1.91736-.16174-.23016-.32311-.46862-.487-.7067-.08789-.13183-.17829-.27412-.27447-.40019-.156-.23557-.31481-.46538-.47366-.70635l-.08213-.12606c-.27375-.41928-.54786-.85189-.84359-1.29529q.68241-1.066 1.34463-2.04917c.44125-.65449.87673-1.28448 1.30969-1.882.4326-.59685.86015-1.16669 1.29239-1.70627.433-.53958.86016-1.04638 1.296-1.52292q.46789-.50951.9394-.96966c.31769-.30941.63575-.59973.961-.87385.32634-.2741.64944-.52841.98371-.76974a13.41125 13.41125 0 0 1 1.79091-1.068c.07708-.03819.1538-.085.23341-.12319l.05187-.02774c.326-.1502.65736-.27375.99451-.39946l.112-.04647c.063-.01944.12859-.03313.19162-.0551a10.07959 10.07959 0 0 1 .77264-.219l.31769-.0796c.35876-.07673.72328-.14516 1.09573-.19451l.23557-.02737.241-.02486c.16426 0 .33139-.027.49852-.0353h.72329a9.87608 9.87608 0 0 1 1.05718.06016 11.11129 11.11129 0 0 1 1.60217.31229c.35623.09869.71248.21359 1.063.348a11.37881 11.37881 0 0 1 1.04638.45169q.51707.25125 1.019.54823c.3339.19739.66276.41638.98009.64331.31807.22729.63035.474.93184.73445a13.53759 13.53759 0 0 1 2.04342 2.1911c.23773.32058.46286.65484.67393.997a11.82861 11.82861 0 0 1 1.22936 2.75589 10.97739 10.97739 0 0 1 .27447 1.19406 10.54013 10.54013 0 0 1 .1639 1.87088c.0162 8.31558-3.714 12.05156-12.07679 12.05156h-.70923c-.16966 0-.33679-.02161-.50391-.03529l-.21108-.0191a8.35469 8.35469 0 0 1-.389-.0497 11.34076 11.34076 0 0 1-2.21306-.5259 11.455 11.455 0 0 1-1.53373-.65447 12.85512 12.85512 0 0 1-1.44657-.871c-.23269-.16137-.46538-.33138-.69554-.5122a19.00491 19.00491 0 0 1-2.00776-1.8327l-.022.02773c-.29033-.30112-.57524-.62206-.86268-.95057m22.75634-44.38454v21.88826a19.77246 19.77246 0 0 0-12.16179-4.33032h-.7204l-.411.01621-.16137.01116-.40559.027h-.13111l-.43332.03818h-.09c-.16137.01657-.32058.03314-.47907.05511h-.036c-.29.03566-.57813.08249-.86269.13184l-.14515.027c-.24639.04393-.48771.09329-.72833.14515l-.10409.02449c-7.01742 1.58633-11.63878 6.66154-15.4515 12.21367-.16173.23593-.31229.474-.4715.70994-.52013.79137-1.26214 1.94724-1.99659 3.09772-.96389 1.50924-1.917 3.01308-2.29772 3.62073l4.76869 7.43165s5.08638 9.35655 14.26248 11.90424l.05475.01622c.23016.06843.46285.12894.6959.18874l.134.03278c.21612.05475.43836.10157.66025.148l.15056.03278q.41063.07835.82162.14552h.04934l.45493.06267.09545.014.41927.04935h.13148l.39442.0353h.156l.3865.022h.17l.39945.01621h.72617c12.64914 0 19.96768-7.15969 20.15138-19.66908v-38.1066z" class="cls-1"/><g clip-path="url(#clip-path-5)"><path d="M142.62878 227.63698l47.28055-1.85683 2.335 59.45616-47.28055 1.85684z" class="cls-1"/></g><path d="M196.15986 265.147v-.11292a20.05307 20.05307 0 0 1 20.5729-20.4037c7.44 0 11.89257 2.48024 15.55648 6.08752l-5.52365 6.36892c-3.04376-2.76165-6.1438-4.45255-10.08911-4.45255-6.651 0-11.442 5.52365-11.442 12.28725v.11256c0 6.7636 4.67838 12.40016 11.442 12.40016 4.50883 0 7.27083-1.80381 10.37087-4.62174l5.52365 5.57993c-4.05823 4.34-8.56741 7.04536-16.17628 7.04536a19.91534 19.91534 0 0 1-20.23486-20.29079zm37.14244 0v-.11292c0-11.21614 8.84917-20.4037 21.02386-20.4037 12.17433 0 20.91094 9.07464 20.91094 20.29114v.11256c0 11.2165-8.84917 20.40371-21.02386 20.40371-12.17433 0-20.91094-9.07465-20.91094-20.29079zm32.86015 0v-.11292c0-6.76359-4.96013-12.39981-11.94921-12.39981s-11.83624 5.52365-11.83624 12.28725v.11256c0 6.7636 4.96013 12.40016 11.94921 12.40016s11.83624-5.52365 11.83624-12.28724zm13.46986-19.84019h8.00354l18.48733 24.29274v-24.29274h8.56706v39.45455h-7.3834l-19.10747-25.08173v25.08173h-8.56706z" class="cls-1"/><path d="M415.452 130.033l-9.57-101.302-8.36-13.052 2.207 94.995 15.723 19.359zM112.44633 69.09625a17.99218 17.99218 0 0 0-2.23729-5.40692q-.16862-.27057-.35408-.52855a9.63643 9.63643 0 0 0-3.31265-2.88963 12.43084 12.43084 0 0 0-4.8958-1.23353q-.36366-.01537-.72874-.00945a10.93732 10.93732 0 0 0-5.904 1.70909 32.87374 32.87374 0 0 0-6.37025 4.6612v24.30009a20.01274 20.01274 0 0 0 6.21488 3.66676l.013.0038q.6411.21477 1.29646.37691c.16026.03961.32334.06473.48463.09958.28244.06106.56411.12643.84925.17273.19241.03126.38714.04663.58058.07113.257.03257.513.07122.77144.0918.20656.01649.4144.01675.62161.02553.24887.01055.49736.02765.74687.027a11.40283 11.40283 0 0 0 5.10814-1.24144 9.91217 9.91217 0 0 0 4.164-3.66673 17.55631 17.55631 0 0 0 2.70352-5.62444h.09325a25.69911 25.69911 0 0 0 .87-7.73752 30.88889 30.88889 0 0 0-.71482-6.86741zm222.55455-6.71199a11.34208 11.34208 0 0 0-13.02012-2.70349 13.4238 13.4238 0 0 0-6.86736 7.116 15.25823 15.25823 0 0 0-1.70932 6.21488l24.51794-.09321a16.37675 16.37675 0 0 0-2.92114-10.53418zM245.6 77.39312a28.15154 28.15154 0 0 0-6.21476 2.45487 8.57842 8.57842 0 0 0-3.41837 3.10745 7.08525 7.08525 0 0 0-.99421 3.91538 6.21456 6.21456 0 0 0 2.45478 5.6555 7.64457 7.64457 0 0 0 5.65553 1.9577 13.11432 13.11432 0 0 0 6.215-1.49157 22.84137 22.84137 0 0 0 6.21476-4.66119l-.3419-12.64726A66.22555 66.22555 0 0 0 245.6 77.39312zM25.687 144.762l87.816-5.407.994-7.83-97.387 5.873 8.577 7.364zm263.666-24.051v7.862l78.493-4.91 43.66 11.187-16.19-20.354-105.963 6.215z" class="cls-7"/><path d="M393.949 108.46745L391.74269 9.62 10.33614 23.60341l4.31921 107.98337 100.55665-6.21492 1.9578-15.94113 172.0585-3.41815v8.66976zm-44.59167-54.84623h6.40125l.01338.15537h.07974l.70147 8.17259h.16875a19.54385 19.54385 0 0 1 5.65553-6.86745 11.59054 11.59054 0 0 1 7.33347-2.45488l.09337.15537.03087-.00074a10.78193 10.78193 0 0 1 4.97206.933l-1.46057 6.86745q-.53478-.17441-1.08012-.30858-.54521-.13413-1.09864-.22765a15.1911 15.1911 0 0 0-2.23382-.20955 9.91236 9.91236 0 0 0-6.21476 2.45487l-.0054.00486a18.64517 18.64517 0 0 0-5.65038 8.38522v29.4274h-7.7062zm-37.16507 5.56235a20.07428 20.07428 0 0 1 22.0629-5.06509A17.028 17.028 0 0 1 340.128 58.531a20.38127 20.38127 0 0 1 3.44925 6.86743 33.16014 33.16014 0 0 1 1.02564 9.01157v2.455a4.75683 4.75683 0 0 1-.24875 1.95768h-30.88781a18.334 18.334 0 0 0 4.66107 11.77712 14.10816 14.10816 0 0 0 10.783 4.41258 16.65576 16.65576 0 0 0 6.21475-.9944 21.4733 21.4733 0 0 0 5.40705-2.70346l2.70326 5.15833a28.43041 28.43041 0 0 1-6.61861 3.10741 35.98573 35.98573 0 0 1-8.732 1.30514 20.19825 20.19825 0 0 1-8.60755-1.70909 22.78059 22.78059 0 0 1-7.085-4.66119 22.65364 22.65364 0 0 1-4.66107-7.61321 25.91463 25.91463 0 0 1-1.74018-10.037 25.94334 25.94334 0 0 1 1.74018-10.06808 22.65328 22.65328 0 0 1 4.66103-7.61326zM77.20806 83.39048a16.71737 16.71737 0 0 1-1.46057 6.86736 18.64231 18.64231 0 0 1-4.195 5.62453 14.66566 14.66566 0 0 1-6.61887 3.69786 34.18171 34.18171 0 0 1-8.82516 1.274 27.96716 27.96716 0 0 1-12.02575-2.45483 32.72117 32.72117 0 0 1-9.53971-6.61887l4.6612-5.53122a25.76049 25.76049 0 0 0 7.8618 5.65553 20.97491 20.97491 0 0 0 9.32227 2.20629 15.53664 15.53664 0 0 0 9.57088-2.70349 9.53987 9.53987 0 0 0 3.41821-7.36464 9.78709 9.78709 0 0 0-.83909-3.729 12.14645 12.14645 0 0 0-2.20627-3.10734 26.87572 26.87572 0 0 0-3.10738-2.20629c-1.21183-.7147-2.70352-1.21189-4.164-1.95768l-9.07378-4.164-4.41245-2.20626a25.079 25.079 0 0 1-4.164-3.10744 13.2679 13.2679 0 0 1-2.952-4.31934 14.57331 14.57331 0 0 1-1.24308-5.87305 16.00355 16.00355 0 0 1 1.49157-6.61884 13.67257 13.67257 0 0 1 4.164-5.25158 16.81248 16.81248 0 0 1 6.21489-3.44918 27.0657 27.0657 0 0 1 7.86182-1.21189A24.361 24.361 0 0 1 67.14 39.07844a23.80281 23.80281 0 0 1 8.11039 5.65556l-4.164 5.12727a31.07254 31.07254 0 0 0-6.30813-4.44364 19.67006 19.67006 0 0 0-7.8307-1.46051 13.051 13.051 0 0 0-8.51429 2.39276 7.86183 7.86183 0 0 0-3.10751 6.61883 7.33412 7.33412 0 0 0 1.08758 3.97751 8.76515 8.76515 0 0 0 2.45491 2.70345 22.16007 22.16007 0 0 0 3.10751 1.95771c1.21182.49717 2.45477 1.243 3.66673 1.70906l8.825 3.69786a27.62477 27.62477 0 0 1 4.90981 2.70349 27.96645 27.96645 0 0 1 4.164 3.356 13.424 13.424 0 0 1 2.6724 4.41255v.06219a14.73 14.73 0 0 1 .99436 5.84195zm44.09455-7.36462a28.39973 28.39973 0 0 1-.08424 3.02108q-.04071.50149-.09916 1.001a28.40528 28.40528 0 0 1-1.55678 6.51209q-.17228.54274-.37157 1.07488a22.21823 22.21823 0 0 1-3.317 5.90994q-.35034.4472-.724.877a17.92942 17.92942 0 0 1-6.21489 4.90975q-.90211.39351-1.83548.69858-.93242.30477-1.88951.51968a20.599 20.599 0 0 1-3.88821.49083 15.32 15.32 0 0 1-6.21489-1.46051 29.58609 29.58609 0 0 1-4.87508-2.83243q-.76515-.54819-1.495-1.14507l.24848 8.11037v15.53719H81.372V53.80768h6.37025l.74572 5.37589h.24862q.60173-.49587 1.22507-.963.62314-.467 1.26687-.90453 1.2872-.87488 2.65157-1.62851.90867-.50185 1.84822-.94765c.39125-.19994.79112-.37942 1.19459-.54948a17.89111 17.89111 0 0 1 2.609-.87656q.49254-.12314.99176-.21826a17.89494 17.89494 0 0 1 3.03535-.31341h.00013a16.28218 16.28218 0 0 1 7.73745 1.74019 15.16719 15.16719 0 0 1 1.62032.89861q.3897.24853.76346.52006a15.16048 15.16048 0 0 1 3.27176 3.24246 20.72547 20.72547 0 0 1 3.41824 7.33356 38.75327 38.75327 0 0 1 .93223 9.50881zm13.05112 23.55437h-7.86182V53.77659h7.86182zm0-56.80393a4.38115 4.38115 0 0 1-3.91535 1.49153 6.02889 6.02889 0 0 1-3.94647-1.49153 5.42748 5.42748 0 0 1 0-7.39572 5.18973 5.18973 0 0 1 3.94647-1.49157 5.9353 5.9353 0 0 1 3.91535 1.49157 5.42677 5.42677 0 0 1 0 7.39572zm44.40542 27.594v29.2099h-7.98632V71.61328a17.71371 17.71371 0 0 0-1.95755-9.3223 7.73752 7.73752 0 0 0-6.58774-2.88992 11.40455 11.40455 0 0 0-6.215 1.70909 36.82521 36.82521 0 0 0-6.21475 5.407v33.34273h-7.58221V53.77659h6.37038l.71459 6.61884h.24875a36.07029 36.07029 0 0 1 6.86736-5.65553 15.848 15.848 0 0 1 8.359-2.20626 12.18148 12.18148 0 0 1 10.53422 4.41255 22.77981 22.77981 0 0 1 3.44927 13.42414zm44.12555.06215v29.2099h-7.73758V71.67543a17.71142 17.71142 0 0 0-1.9578-9.3223 7.79939 7.79939 0 0 0-6.61861-2.95207 11.56014 11.56014 0 0 0-6.40151 1.70909 38.06189 38.06189 0 0 0-6.21476 5.407v33.34273h-7.61334V53.77659h6.37013l.71485 6.61884h.24875a36.06955 36.06955 0 0 1 6.89848-5.65553 15.848 15.848 0 0 1 8.35906-2.20626 12.2117 12.2117 0 0 1 10.534 4.41255h.00025a22.81072 22.81072 0 0 1 3.41808 13.48629zm40.61406 1.1808v28.24656h-6.40125l-.7146-5.37585h-.24874a45.95443 45.95443 0 0 1-7.11611 4.66119 22.06334 22.06334 0 0 1-8.07918 1.7091 13.79689 13.79689 0 0 1-9.57088-3.41819 12.43 12.43 0 0 1-3.94647-9.57091 12.43 12.43 0 0 1 6.65-11.52859 52.54639 52.54639 0 0 1 21.59654-5.62443 21.21937 21.21937 0 0 0-.49723-4.164 7.79977 7.79977 0 0 0-1.46031-3.66673 9.94447 9.94447 0 0 0-3.10764-2.70349 8.57589 8.57589 0 0 0-4.66107-.99437 17.682 17.682 0 0 0-7.27147 1.46047 29.2745 29.2745 0 0 0-6.21476 3.41819l-2.92114-5.40692a40.80171 40.80171 0 0 1 7.831-3.91538 27.9656 27.9656 0 0 1 10.3166-1.95771 14.3877 14.3877 0 0 1 12.24328 5.15833 23.2442 23.2442 0 0 1 3.57343 13.67276zm23.399 5.93521l-8.57642 10.06808v11.96369h-7.36459V32.42854h7.61308v45.61718h.24875l19.639-24.39334h8.73179l-15.53716 18.396 17.33959 27.53184h-8.57667z" class="cls-7"/><path d="M305.791 76.86489a25.91463 25.91463 0 0 0 1.74018 10.037 22.65364 22.65364 0 0 0 4.66107 7.61321 22.78059 22.78059 0 0 0 7.085 4.66119 20.19825 20.19825 0 0 0 8.60755 1.70909 35.98573 35.98573 0 0 0 8.732-1.30514 28.43041 28.43041 0 0 0 6.61861-3.10741l-2.70326-5.15833a21.4733 21.4733 0 0 1-5.40705 2.70346 16.65576 16.65576 0 0 1-6.21475.9944 14.10816 14.10816 0 0 1-10.783-4.41258 18.334 18.334 0 0 1-4.66107-11.77717h30.88781a4.75683 4.75683 0 0 0 .24875-1.95768V74.41a33.16014 33.16014 0 0 0-1.02559-9.01149A20.38127 20.38127 0 0 0 340.128 58.531a17.028 17.028 0 0 0-5.87289-4.41255 20.07428 20.07428 0 0 0-22.0629 5.06509 22.65328 22.65328 0 0 0-4.66107 7.61324 25.94334 25.94334 0 0 0-1.74014 10.06811zm9.32239-10.06808a13.4238 13.4238 0 0 1 6.86736-7.116 11.34208 11.34208 0 0 1 13.02012 2.70349 16.37675 16.37675 0 0 1 2.92113 10.53418l-24.51794.09321a15.25823 15.25823 0 0 1 1.70934-6.21488zM76.21373 77.48633a13.424 13.424 0 0 0-2.6724-4.41255 27.96645 27.96645 0 0 0-4.164-3.356 27.62477 27.62477 0 0 0-4.90981-2.70349l-8.825-3.69786c-1.212-.46611-2.45491-1.21189-3.66673-1.70906a22.16007 22.16007 0 0 1-3.10751-1.95771 8.76515 8.76515 0 0 1-2.45491-2.70345 7.33412 7.33412 0 0 1-1.08758-3.97751 7.86183 7.86183 0 0 1 3.10751-6.61883 13.051 13.051 0 0 1 8.51429-2.39276 19.67006 19.67006 0 0 1 7.8307 1.46051 31.07254 31.07254 0 0 1 6.30813 4.44364l4.164-5.12727A23.80281 23.80281 0 0 0 67.14 39.07844a24.361 24.361 0 0 0-10.19236-2.23735 27.0657 27.0657 0 0 0-7.86187 1.21191 16.81248 16.81248 0 0 0-6.21489 3.44924 13.67257 13.67257 0 0 0-4.164 5.25158 16.00355 16.00355 0 0 0-1.49157 6.61884 14.57331 14.57331 0 0 0 1.24308 5.87305 13.2679 13.2679 0 0 0 2.952 4.31934 25.079 25.079 0 0 0 4.164 3.10744l4.41245 2.20626 9.07378 4.164c1.46044.74579 2.95213 1.243 4.164 1.95768a26.87572 26.87572 0 0 1 3.10738 2.20623 12.14645 12.14645 0 0 1 2.20629 3.10741 9.78709 9.78709 0 0 1 .83909 3.729 9.53987 9.53987 0 0 1-3.41824 7.36459 15.53664 15.53664 0 0 1-9.57088 2.70349 20.97491 20.97491 0 0 1-9.32226-2.20631 25.76049 25.76049 0 0 1-7.86182-5.65553L34.543 91.78053a32.72117 32.72117 0 0 0 9.53976 6.61887 27.96716 27.96716 0 0 0 12.02579 2.45485 34.18171 34.18171 0 0 0 8.82516-1.274 14.66566 14.66566 0 0 0 6.61887-3.69786 18.64231 18.64231 0 0 0 4.195-5.62453 16.71737 16.71737 0 0 0 1.46057-6.86736 14.73 14.73 0 0 0-.99433-5.842zm280.75668 22.62213h.09312v-29.4274a18.64517 18.64517 0 0 1 5.65038-8.38522l.0054-.00486a9.91236 9.91236 0 0 1 6.21476-2.45487 15.1911 15.1911 0 0 1 2.23382.20955q.55331.09347 1.09864.22765.54482.13413 1.08012.30858l1.46057-6.86745a10.78193 10.78193 0 0 0-4.97206-.933l-.03087.00074-.09337-.15537a11.59054 11.59054 0 0 0-7.33347 2.45488 19.54385 19.54385 0 0 0-5.65553 6.86745h-.16875l-.70147-8.17259h-.0797l-.01338-.15537h-6.40125v46.48724h7.61308zM116.95216 59.18354a15.16048 15.16048 0 0 0-3.27176-3.24246q-.3735-.27139-.76346-.52006a15.16719 15.16719 0 0 0-1.62032-.89861 16.28218 16.28218 0 0 0-7.73745-1.74019h-.00017a17.89494 17.89494 0 0 0-3.03535.31341q-.4989.09506-.99176.21826a17.89111 17.89111 0 0 0-2.609.87656c-.40347.17006-.80334.34954-1.19459.54948q-.93917.44556-1.84822.94765-1.36282.75275-2.65157 1.62851-.64359.43746-1.26687.90453-.62334.467-1.22507.963H88.488l-.74572-5.37589H81.372v65.44261h7.6132V103.7131l-.24848-8.11037q.72963.59667 1.495 1.14507a29.58609 29.58609 0 0 0 4.87508 2.83243 15.32 15.32 0 0 0 6.21489 1.46051 20.599 20.599 0 0 0 3.88821-.49083q.95613-.21459 1.88951-.51968.93221-.30482 1.83548-.69858a17.92942 17.92942 0 0 0 6.21489-4.90975q.37369-.42964.724-.877a22.21823 22.21823 0 0 0 3.317-5.90994q.19929-.532.37157-1.07488a28.40528 28.40528 0 0 0 1.55678-6.51209q.05846-.49948.09916-1.001a28.39973 28.39973 0 0 0 .08424-3.02108 38.75327 38.75327 0 0 0-.93221-9.50876 20.72547 20.72547 0 0 0-3.41816-7.33361zm-4.66107 24.51768h-.09325a17.55631 17.55631 0 0 1-2.70352 5.62444 9.91217 9.91217 0 0 1-4.164 3.66673 11.40283 11.40283 0 0 1-5.10814 1.24144c-.24951.00061-.498-.01649-.74687-.027-.20721-.00878-.41505-.009-.62161-.02553-.25839-.02058-.51446-.05923-.77144-.0918-.19344-.0245-.38817-.03987-.58058-.07113-.28514-.0463-.56681-.11167-.84925-.17273-.16129-.03485-.32437-.06-.48463-.09958q-.65478-.16191-1.29646-.37691l-.013-.0038a20.01274 20.01274 0 0 1-6.21488-3.66676V65.39846a32.87374 32.87374 0 0 1 6.37025-4.6612 10.9375 10.9375 0 0 1 5.904-1.70909q.365-.006.72874.00945a12.43187 12.43187 0 0 1 4.8958 1.23353 9.63643 9.63643 0 0 1 3.31265 2.88963q.1854.25785.35408.52855a17.99218 17.99218 0 0 1 2.23729 5.40692 30.88889 30.88889 0 0 1 .71472 6.86745 25.69911 25.69911 0 0 1-.8699 7.73752zM126.492 53.839V99.58h7.862V53.777h-7.862v.062zm121.19-1.05678a27.9656 27.9656 0 0 0-10.3166 1.95771 40.80171 40.80171 0 0 0-7.831 3.91538l2.92114 5.40692a29.2745 29.2745 0 0 1 6.21476-3.41819 17.682 17.682 0 0 1 7.27147-1.46047 8.57589 8.57589 0 0 1 4.66107.99437 9.94447 9.94447 0 0 1 3.10764 2.70349 7.79977 7.79977 0 0 1 1.46031 3.66673 21.21937 21.21937 0 0 1 .49723 4.164 52.54639 52.54639 0 0 0-21.59654 5.62443 12.43 12.43 0 0 0-6.65 11.52859 12.43 12.43 0 0 0 3.94647 9.57091 13.79689 13.79689 0 0 0 9.57088 3.41819 22.06334 22.06334 0 0 0 8.07918-1.7091 45.95443 45.95443 0 0 0 7.11611-4.66119h.24874l.7146 5.37585h6.40125V71.61328a23.2442 23.2442 0 0 0-3.57349-13.67273 14.3877 14.3877 0 0 0-12.24322-5.15833zm1.61594 40.21023a13.11432 13.11432 0 0 1-6.215 1.49157 7.64457 7.64457 0 0 1-5.65553-1.9577 6.21456 6.21456 0 0 1-2.45478-5.6555 7.08525 7.08525 0 0 1 .99421-3.91538 8.57842 8.57842 0 0 1 3.41837-3.10745A28.15154 28.15154 0 0 1 245.6 77.39312a66.22555 66.22555 0 0 1 9.57088-1.70909l.34186 12.64723a22.84137 22.84137 0 0 1-6.21481 4.66119z" class="cls-1"/><path d="M308.992 99.58l-17.34-27.532 15.537-18.396h-8.731l-19.639 24.394h-.249V32.429h-7.613V99.58h7.364V87.617l8.577-10.069 13.517 22.032h8.577zm-89.52567-42.63381a12.2117 12.2117 0 0 0-10.534-4.41255 15.848 15.848 0 0 0-8.35906 2.20626 36.06955 36.06955 0 0 0-6.89848 5.65553h-.24875l-.71485-6.61884h-6.37009v46.08329h7.61334V66.5171a38.06189 38.06189 0 0 1 6.21476-5.407 11.56014 11.56014 0 0 1 6.40151-1.70909 7.79939 7.79939 0 0 1 6.61861 2.95207 17.71142 17.71142 0 0 1 1.9578 9.3223v27.96697h7.73758V70.43248a22.81072 22.81072 0 0 0-3.41812-13.48629zm-54.69064-4.41255a15.848 15.848 0 0 0-8.359 2.20626 36.07029 36.07029 0 0 0-6.86736 5.65553h-.24875l-.71459-6.61884h-6.37038v46.08329h7.58221V66.5171a36.82521 36.82521 0 0 1 6.21475-5.407 11.40455 11.40455 0 0 1 6.215-1.70909 7.73752 7.73752 0 0 1 6.58774 2.88992 17.71371 17.71371 0 0 1 1.95755 9.3223v27.967h7.98632v-29.2099a22.77981 22.77981 0 0 0-3.44924-13.42414 12.18148 12.18148 0 0 0-10.53425-4.41255zM130.43838 33.889a5.18973 5.18973 0 0 0-3.94647 1.49157 5.42748 5.42748 0 0 0 0 7.39572 6.02889 6.02889 0 0 0 3.94647 1.49153 4.38115 4.38115 0 0 0 3.91535-1.49153 5.42677 5.42677 0 0 0 0-7.39572 5.9353 5.9353 0 0 0-3.91535-1.49157z" class="cls-1"/><path fill="none" stroke="#fff" stroke-linecap="round" stroke-linejoin="round" stroke-width="0" d="M109.15721 62.29957a9.60523 9.60523 0 0 1 .69775.86121m-13.11131-3.3185a10.93819 10.93819 0 0 1 1.85233-.57205"/><path d="M411.50593 26.52439L397.52247 4.213v-.96328L7.04227 17.69929H4.12113l4.90981 120.19559-.24862.24858 14.9468 12.42978 86.82165-5.31374-6.61877 12.24328 27.96693-6.86742 156.739.9944v-17.40161l77.9965-4.90975 55.93384 13.98346zm-5.62441 2.20629l9.57089 101.30238-15.72365-19.35932-2.20629-94.99428zM113.50291 139.35536L25.6868 144.7623l-8.57655-7.36462 97.387-5.87305zm37.182-1.52829a7.16931 7.16931 0 0 1-3.18918 2.6796 12.93912 12.93912 0 0 1-5.36846.99292 13.98981 13.98981 0 0 1-4.48872-.605 7.959 7.959 0 0 1-2.92217-1.65119 6.22691 6.22691 0 0 1-1.60256-2.30866 7.41105 7.41105 0 0 1-.51241-2.57645l6.14839-.02033a1.95016 1.95016 0 0 0 .27524.84167 2.606 2.606 0 0 0 .68013.75009 3.363 3.363 0 0 0 1.08346.53351 5.07 5.07 0 0 0 1.48784.19344 4.8546 4.8546 0 0 0 1.79292-.27859 2.07094 2.07094 0 0 0 .97234-.73054 1.7298 1.7298 0 0 0 .303-.98443 1.44278 1.44278 0 0 0-.82315-1.369 8.8912 8.8912 0 0 0-2.39072-.71922l-2.84346-.51961a11.10774 11.10774 0 0 1-3.26789-1.11305 5.74893 5.74893 0 0 1-2.24668-2.12475 6.47489 6.47489 0 0 1-.82109-3.36873 6.56623 6.56623 0 0 1 1.14426-3.92075 7.27364 7.27364 0 0 1 3.22313-2.4895 12.55533 12.55533 0 0 1 4.83084-.87537 11.2636 11.2636 0 0 1 5.102.99935 7.20894 7.20894 0 0 1 2.99985 2.60989 6.47022 6.47022 0 0 1 1.01093 3.36822l-5.93283.01955a2.22744 2.22744 0 0 0-.40026-1.04 2.66547 2.66547 0 0 0-1.03562-.85581 3.80571 3.80571 0 0 0-1.72809-.34135 3.15325 3.15325 0 0 0-2.07279.57672 1.77138 1.77138 0 0 0-.66417 1.39883 1.37712 1.37712 0 0 0 .79691 1.2288 6.64947 6.64947 0 0 0 2.18391.67859l2.99316.48591a10.79362 10.79362 0 0 1 3.06057.96488 5.95347 5.95347 0 0 1 2.35368 2.06661 6.44518 6.44518 0 0 1 .9209 3.62468 7.11946 7.11946 0 0 1-1.05312 3.87907zm24.78032-.31306a7.86813 7.86813 0 0 1-3.39548 2.87047 14.03149 14.03149 0 0 1-10.48638.03473 7.51141 7.51141 0 0 1-4.61836-7.166l-.04888-14.7585 6.52807-.02161.04579 13.88262a3.69913 3.69913 0 0 0 .94353 2.80642 3.63417 3.63417 0 0 0 4.74287-.02392 3.69921 3.69921 0 0 0 .9245-2.80436l-.04579-13.88263 6.545-.02135.04888 14.75851a7.75039 7.75039 0 0 1-1.1837 4.32561zm25.56025 3.395l-.0427-12.97382-.29737.00077-4.053 8.95481-3.5205.01157-4.14454-8.92754-.31383.001.0427 12.97382-5.7682.01878-.07459-22.55936 6.7925-.02238 5.12666 10.80843.23151-.00077 5.07058-10.84187 6.74312-.02213.07459 22.55937zm30.4662-.10032l-.0427-12.97382-.29736.00077-4.053 8.95481-3.5205.01157-4.14454-8.92779-.31383.001.0427 12.97382-5.7682.019-.07459-22.55936 6.7925-.02238 5.12666 10.80843.23151-.00077 5.07058-10.84187 6.7426-.02238.0746 22.55936zm12.35183-.0409l-.0746-22.55936 6.52807-.02135.0746 22.55936zm23.55794-.07743l-6.545.02135-.05711-17.30383-5.834.0193-.01749-5.25554 18.21315-.05993.01749 5.25553-5.834.01929zm-150.23173-31.2596l-1.9578 15.94113-100.55657 6.21489-4.31921-107.98337L391.74269 9.62l2.20629 98.8475-104.72071 6.21489v-8.66976zm250.67677 14.23204l-78.49372 4.90975v-7.86182l105.96341-6.21485 16.18975 20.35368zm-248.80743 84.68583a6.5338 6.5338 0 0 0 .36426 2.3252 3 3 0 0 0 1.06152 1.44336 2.843 2.843 0 0 0 1.67578.48926 2.90552 2.90552 0 0 0 1.48438-.36329 2.54947 2.54947 0 0 0 .97266-.99609 3.39018 3.39018 0 0 0 .39355-1.44336h3.7334v.46484a5.25005 5.25005 0 0 1-.90039 2.92872 5.77 5.77 0 0 1-2.34375 1.95605 7.79953 7.79953 0 0 1-3.36426.69727 7.56274 7.56274 0 0 1-3.8584-.918 5.93522 5.93522 0 0 1-2.39746-2.60059 9.05618 9.05618 0 0 1-.81738-3.99609v-1.8125a9.0685 9.0685 0 0 1 .82324-4.01367 5.964 5.964 0 0 1 2.40332-2.60645 7.53789 7.53789 0 0 1 3.84668-.91894 8.17324 8.17324 0 0 1 2.61231.40039 6.19714 6.19714 0 0 1 2.07617 1.15039 5.39781 5.39781 0 0 1 1.91992 4.127v.4541h-3.7334a3.553 3.553 0 0 0-.39941-1.49121 2.64044 2.64044 0 0 0-.97266-1.03223 2.803 2.803 0 0 0-1.47852-.376 2.74739 2.74739 0 0 0-1.66992.50781 3.16252 3.16252 0 0 0-1.06152 1.46094 6.47975 6.47975 0 0 0-.37012 2.33789zm26.96778 3.99512a6.052 6.052 0 0 1-2.46875 2.59473 8.873 8.873 0 0 1-7.83692 0 6.03339 6.03339 0 0 1-2.48047-2.59473 8.6395 8.6395 0 0 1-.85351-3.96v-1.89645a8.76952 8.76952 0 0 1 .85351-4.00195 5.99387 5.99387 0 0 1 2.48047-2.59375 7.94077 7.94077 0 0 1 3.91895-.90722 7.81636 7.81636 0 0 1 3.918.91894 6.104 6.104 0 0 1 2.46875 2.59375 8.70847 8.70847 0 0 1 .85351 3.99023v1.89649a8.65193 8.65193 0 0 1-.85354 3.95996zm-3.55469-8.27148a3.12877 3.12877 0 0 0-1.13867-1.42579 3.26936 3.26936 0 0 0-3.39942 0 3.13673 3.13673 0 0 0-1.13965 1.42579 5.97471 5.97471 0 0 0-.41113 2.36718v1.95606a5.98917 5.98917 0 0 0 .41113 2.3623 3.13859 3.13859 0 0 0 1.13965 1.43164 3.2693 3.2693 0 0 0 3.39942 0 3.13066 3.13066 0 0 0 1.13867-1.43164 5.97068 5.97068 0 0 0 .41211-2.3623v-1.95606a5.9563 5.9563 0 0 0-.41211-2.36718zm8.12207 4.91992v-3.36328h7.51465v3.36328zm22.3457 6.56054H162.459v-16.28125h3.92481v13.0127h6.53613zm16.39942-3.20898a6.052 6.052 0 0 1-2.46875 2.59473 8.873 8.873 0 0 1-7.83692 0 6.03339 6.03339 0 0 1-2.48047-2.59473 8.6395 8.6395 0 0 1-.85351-3.96v-1.89645a8.76952 8.76952 0 0 1 .85351-4.00195 5.99387 5.99387 0 0 1 2.48047-2.59375 7.94077 7.94077 0 0 1 3.91895-.90722 7.81636 7.81636 0 0 1 3.918.91894 6.104 6.104 0 0 1 2.46875 2.59375 8.70847 8.70847 0 0 1 .85351 3.99023v1.89649a8.65193 8.65193 0 0 1-.85354 3.95996zm-3.55469-8.27148a3.12877 3.12877 0 0 0-1.13867-1.42579 3.26936 3.26936 0 0 0-3.39942 0 3.13673 3.13673 0 0 0-1.13965 1.42579 5.97471 5.97471 0 0 0-.41113 2.36718v1.95606a5.98917 5.98917 0 0 0 .41113 2.3623 3.13859 3.13859 0 0 0 1.13965 1.43164 3.2693 3.2693 0 0 0 3.39942 0 3.13066 3.13066 0 0 0 1.13867-1.43164 5.97068 5.97068 0 0 0 .41211-2.3623v-1.95606a5.9563 5.9563 0 0 0-.41211-2.36718zm12.15435 4.27636a6.53381 6.53381 0 0 0 .36425 2.3252 3 3 0 0 0 1.06153 1.44336 2.843 2.843 0 0 0 1.67578.48926 2.90551 2.90551 0 0 0 1.48437-.36329 2.54947 2.54947 0 0 0 .97266-.99609 3.38989 3.38989 0 0 0 .39355-1.44336h3.7334v.46484a5.25005 5.25005 0 0 1-.90039 2.92872 5.77 5.77 0 0 1-2.34375 1.95605 7.79953 7.79953 0 0 1-3.36426.69727 7.5627 7.5627 0 0 1-3.85839-.918 5.93525 5.93525 0 0 1-2.39747-2.60059 9.05618 9.05618 0 0 1-.81738-3.99609v-1.8125a9.06864 9.06864 0 0 1 .82324-4.01367 5.964 5.964 0 0 1 2.40332-2.60645 7.53789 7.53789 0 0 1 3.84668-.91894 8.1732 8.1732 0 0 1 2.61231.40039 6.19714 6.19714 0 0 1 2.07617 1.15039 5.39781 5.39781 0 0 1 1.91992 4.127v.4541h-3.7334a3.55288 3.55288 0 0 0-.39941-1.49121 2.64037 2.64037 0 0 0-.97266-1.03223 2.803 2.803 0 0 0-1.47851-.376 2.74735 2.74735 0 0 0-1.66992.50781 3.16254 3.16254 0 0 0-1.06153 1.46094 6.47977 6.47977 0 0 0-.37011 2.33789zm12.50483 7.2041l5.249-16.28125h4.77051l5.22461 16.28125h-4.16211l-1.0625-3.75683h-5.04492l-1.06153 3.75683zm7.43164-12.77441l-1.72949 6.19043h3.61425l-1.70605-6.19043zm13.42383 12.77441v-13.07324h-4.4375v-3.208h12.78711v3.208h-4.4375v13.07324zm22.83496 0H243.2002v-16.28125h10.91406v3.11231h-7.03711v3.543h6.60742V208.79h-6.60742v3.64941h7.03711zm10.95508-16.28125a8.03679 8.03679 0 0 1 4.16894.97168 5.85314 5.85314 0 0 1 2.40918 2.7793 10.86386 10.86386 0 0 1 .78125 4.32422 11.05566 11.05566 0 0 1-.793 4.377 5.98708 5.98708 0 0 1-2.42187 2.83887 7.86608 7.86608 0 0 1-4.14453.99023h-6.38181v-16.2813zm-2.457 13.168h1.83692a4.69186 4.69186 0 0 0 1.78906-.30957 2.9355 2.9355 0 0 0 1.22852-.93066 4.19091 4.19091 0 0 0 .71-1.5625 9.26518 9.26518 0 0 0 .23242-2.19531 8.27389 8.27389 0 0 0-.41211-2.80274 3.27212 3.27212 0 0 0-1.28809-1.70019 4.10158 4.10158 0 0 0-2.25976-.56641h-1.837zm19.12887 3.11325l5.249-16.28125h4.77051l5.22461 16.28125h-4.16211l-1.0625-3.75683h-5.04492l-1.06152 3.75683zm7.43164-12.77441l-1.72949 6.19043h3.61426l-1.70606-6.19043zm13.42383 12.77441v-13.07324h-4.4375v-3.208h12.78711v3.208h-4.4375v13.07324z" class="cls-1"/></svg>