<svg height="37" viewBox="0 0 137 37" width="137" xmlns="http://www.w3.org/2000/svg"><g fill="#fff" fill-rule="evenodd"><path d="m1.99875789 22.8812353c.9316.9924706 2.03120527 1.7897843 3.29737369 2.3933922 1.26472631.6028823 2.57776316.9046862 3.93694737.9046862 1.73124735 0 3.07673155-.3953921 4.03573155-1.1869019.9597211-.7900589 1.4392211-1.8289608 1.4392211-3.1167059 0-.6696275-.1139263-1.2398628-.3396158-1.7085294-.2271316-.4693922-.5328579-.8705883-.9193421-1.2064902-.3864842-.3351765-.8457948-.6362549-1.3793737-.9046863-.5328579-.2684314-1.1053737-.5491961-1.7182684-.8444706l-3.75668423-1.6490392c-.61361579-.2677059-1.23876842-.589098-1.87834211-.964902-.64029473-.3758039-1.21353158-.8306862-1.71898947-1.367549-.50617895-.5361372-.91934211-1.1723921-1.23876842-1.9102157-.32014737-.737098-.48022105-1.58809801-.48022105-2.55299997 0-.9917451.2069421-1.9167451.62010526-2.775.4124421-.8582549.98567895-1.60188235 1.71898947-2.23160784.73186842-.63045098 1.59785263-1.11943138 2.59723158-1.46839216.99937895-.3475098 2.09826316-.52307843 3.29737369-.52307843 1.57189478 0 3.02409478.30180392 4.35659998.90541176 1.3317842.60360785 2.4638369 1.38786275 3.396879 2.35276471l-1.7983053 2.17139216c-.7989263-.777-1.6858211-1.38713726-2.6570789-1.83041177-.9734211-.44182353-2.0723053-.66309804-3.29809478-.66309804-1.4659 0-2.64482106.34170588-3.53676316 1.02511765-.89338421.68413725-1.33899474 1.62945098-1.33899474 2.83594118 0 .64278431.12618421 1.18545098.37927369 1.62799995.25381052.4425491.59270526.8314118 1.01956842 1.1665883.4261421.3351765.8919421.6297255 1.3988421.8843725.50617895.2546471 1.02533684.4897059 1.55891579.704451l3.71702628 1.6076863c.7455685.3221176 1.4522.6913921 2.1177316 1.1063725.6655316.4157059 1.2387684.8981569 1.7189895 1.447353.4795.5499215.8594947 1.1927059 1.1385421 1.9305294.2804895.7378235.4196526 1.588098.4196526 2.5537255 0 1.0454313-.206221 2.0241176-.6193842 2.9346078-.4131631.9119412-1.0051474 1.7099804-1.7781158 2.3933922-.7729684.6841372-1.7052894 1.2202745-2.7984052 1.6084117-1.0923948.3881373-2.3311632.5832942-3.7163053.5832942-1.83868421 0-3.54397368-.3489608-5.11658947-1.0461569-1.57189474-.6964706-2.93107895-1.6483137-4.07611053-2.8548039z"/><path d="m22.2221211 24.2886863c.8789631.7516078 1.7319684 1.2804902 2.5575736 1.5888235.8263264.3083333 1.5589158.4628627 2.1984895.4628627.7989263 0 1.5387263-.1813725 2.2179579-.5433921.6799526-.3620196 1.2654474-.8713137 1.7593684-1.5278824.4917579-.6565686.8782421-1.4676666 1.1587316-2.4325686.2797684-.9656274.4196526-2.0516863.4196526-3.2581765 0-1.071549-.0937368-2.0509607-.2804894-2.9360588-.1860316-.883647-.4852685-1.6410588-.8991527-2.2707843-.4131631-.630451-.9453-1.1194314-1.5978526-1.4683922-.6539947-.3482352-1.4334526-.5230784-2.3390947-.5230784-.8256053 0-1.6577.2285294-2.4970053.6841373-.8393053.4563333-1.7391789 1.1121764-2.6981789 1.9704313zm0 5.9918235v6.5954314h-3.2779053v-27.78772551h2.7183684l.2797684 2.25192161h.1204158c.8782421-.7501569 1.8437316-1.39366671 2.8971895-1.92980397 1.0520158-.53686274 2.151621-.80529411 3.2973737-.80529411 1.2524684 0 2.3578421.23578431 3.3175631.70445098.959.46866666 1.7586474 1.1397451 2.3975 2.0103333.6395737.8720392 1.1255632 1.9174706 1.4594106 3.1370196.3331263 1.2195491.4989684 2.5936275.4989684 4.1215098 0 1.6628236-.2264105 3.1435491-.6792316 4.4436275-.452821 1.3008039-1.0657158 2.4071765-1.8386842 3.3183921-.7722474.9112157-1.6656316 1.6018824-2.6772684 2.0705491-1.013079.4686666-2.0787948.7037255-3.1978684.7037255-.9056422 0-1.8047948-.2016863-2.698179-.6028824-.8926632-.4026471-1.7918158-.9518431-2.6974579-1.6490392z"/><path d="m37.1291632 28.6321961h3.2779052v-19.54398041h-3.2779052zm1.6786105-23.56537257c-.6388526 0-1.1782-.20096078-1.6187632-.60360784-.439121-.40119608-.6590421-.91121569-.6590421-1.52788236 0-.6435098.2199211-1.15933333.6590421-1.54819608.4405632-.38813725.9799106-.58329411 1.6187632-.58329411.6395737 0 1.1796421.19515686 1.6187631.58329411.4398421.38886275.6597632.90468628.6597632 1.54819608 0 .61666667-.2199211 1.12668628-.6597632 1.52788236-.439121.40264706-.9791894.60360784-1.6187631.60360784z"/><path d="m42.9639211 9.08821569h2.7183684l.2790473 2.81490191h.1204158c.9323211-.9380588 1.9115106-1.7223137 2.9368474-2.35276466 1.0260579-.629 2.2194-.94531372 3.5778632-.94531372 2.0513947 0 3.5497421.64423529 4.4964842 1.93052938.9453 1.2870196 1.4190315 3.1914314 1.4190315 5.7103334v12.3862941h-3.2771842v-11.9437451c0-1.85-.2941894-3.183451-.8796842-4.0010785-.5869368-.8176274-1.5192579-1.2268039-2.7976842-1.2268039-1.0130789 0-1.9057421.2553726-2.6779895.7646667-.7729684.5092941-1.6526526 1.2601765-2.6376105 2.2511961v14.1557647h-3.2779052z"/><path d="m60.8294421 9.08821569h2.7183684l.2797684 2.81490191h.1204158c.9323211-.9380588 1.9107895-1.7223137 2.9368474-2.35276466 1.0260579-.629 2.218679-.94531372 3.5778632-.94531372 2.0506736 0 3.5497421.64423529 4.4957631 1.93052938.9460211 1.2870196 1.4190316 3.1914314 1.4190316 5.7103334v12.3862941h-3.2771842v-11.9437451c0-1.85-.2934684-3.183451-.8796842-4.0010785-.5862158-.8176274-1.5185369-1.2268039-2.7976842-1.2268039-1.013079 0-1.9050211.2553726-2.6779895.7646667s-1.6526526 1.2601765-2.6376105 2.2511961v14.1557647h-3.2779053z"/><path d="m80.9742105 23.3237843c0 1.1259608.3259158 1.9298039.9784684 2.4129804.6532737.482451 1.4594106.7240392 2.4184106.7240392.932321 0 1.8184947-.2212745 2.6578-.6638235.8393052-.442549 1.7247579-1.0918628 2.6578-1.9501177v-5.4288431c-1.6252527.2147451-2.9974158.4686667-4.1164895.7632157-1.1190737.296-2.0182263.6442353-2.6974579 1.0461569-.6799526.4019215-1.1666632.8640588-1.4594105 1.3871372-.2934684.5230784-.4391211 1.0933137-.4391211 1.7092549zm-3.2375263.2408628c0-2.1445491.9525105-3.7856079 2.8575316-4.9260785 1.9043-1.1390196 4.9356053-1.9363333 9.0924737-2.3926666 0-.6159412-.0598474-1.2195491-.1795421-1.8093726-.1196948-.589098-.3338474-1.1121765-.6395737-1.5685098-.3071684-.4556078-.7131211-.8241569-1.218579-1.1056471-.5069-.2814901-1.1594526-.4222352-1.9591-.4222352-1.1457526 0-2.2049789.2147451-3.1769579.6435098-.973421.4287647-1.8458947.9112156-2.6181421 1.4480784l-1.3188052-2.2932745c.9056421-.5890981 2.0117368-1.15860786 3.3168421-1.70852943 1.3058263-.54919608 2.7443263-.82488235 4.3169421-.82488235 2.3715421 0 4.0890895.73129411 5.1555263 2.19243138 1.0657158 1.4611372 1.5992947 3.4119804 1.5992947 5.8503529v11.9843726h-2.7183684l-.2790474-2.332451h-.0807578c-.9330422.7777255-1.9381895 1.4408235-3.0168843 1.9907451-1.0794157.5491961-2.2186789.8241569-3.4177894.8241569-1.6526527 0-3.0176053-.482451-4.0963-1.447353-1.0794158-.9649019-1.6187632-2.332451-1.6187632-4.102647z"/><path d="m95.1616421 0h3.2375263v19.3829216h.1196948l8.2733578-10.29470591h3.63699l-6.514711 7.84182351 7.393674 11.7021569h-3.596611l-5.675405-9.4103334-3.6369896 4.2629804v5.147353h-3.2375263z"/><path d="m122.379937 17.4124902c0-2.0110588-.419653-3.5454706-1.258958-4.6046863-.839305-1.0584902-2.018226-1.588098-3.537484-1.588098-.692932 0-1.352695.1407451-1.977848.4222353-.626594.2807647-1.192621.6834117-1.6988 1.2064902-.506179.5230784-.925831 1.1658627-1.258958 1.9298039-.333126.7646667-.553047 1.6425098-.659042 2.6342549zm-13.588958 1.4879804c0-1.6084118.245879-3.0492353.739079-4.3231961.4932-1.2725098 1.145753-2.3520392 1.958379-3.2371372.812626-.8850981 1.738458-1.56198044 2.778216-2.0306471 1.039036-.46866667 2.117731-.70445098 3.237526-.70445098 1.225068 0 2.324674.21547058 3.296653.64423529.9727.42876471 1.785326 1.04470589 2.4386 1.84999999.652552.8038431 1.152242 1.7687451 1.498347 2.8947059.346826 1.1266863.519879 2.3868627.519879 3.7805294 0 .7233137-.040379 1.3269216-.119695 1.8093726h-13.109458c.132674 2.1184313.778737 3.7943137 1.93819 5.0269215 1.158731 1.2333334 2.6715 1.85 4.536863 1.85.932321 0 1.791095-.1414706 2.577763-.4222353.785226-.2814902 1.538726-.6500392 2.258337-1.1063725l1.158731 2.1713921c-.853005.5375883-1.799026 1.0055294-2.837342 1.4081765-1.039758.4011961-2.225168.6028824-3.557673.6028824-1.305827 0-2.525127-.2350589-3.656458-.7037255-1.133495-.4686667-2.119174-1.1390196-2.958479-2.0103334-.839305-.8713137-1.498348-1.9370588-1.977848-3.1979607-.4795-1.259451-.71961-2.6944706-.71961-4.3021569z"/><path d="m126.055863 9.08821569h2.718369l.279768 3.53821571h.120416c.66481-1.2326079 1.471668-2.2112941 2.417689-2.93533336.9453-.72403922 1.977848-1.08605882 3.097642-1.08605882.772248 0 1.464458.13494117 2.078074.40264705l-.639574 2.89543133c-.319426-.106647-.613615-.1871764-.879684-.2415882-.266789-.0529608-.599195-.0798039-.998658-.0798039-.826326 0-1.685821.3351765-2.578484 1.0055294-.892663.6696275-1.672121 1.8362157-2.337653 3.4983137v12.5466275h-3.277905z"/></g></svg>