<svg height="162" viewBox="0 0 140 162" width="140" xmlns="http://www.w3.org/2000/svg" xmlns:xlink="http://www.w3.org/1999/xlink"><linearGradient id="a"><stop offset="0" stop-color="#2b3990"/><stop offset=".16" stop-color="#1e62a7"/><stop offset=".32" stop-color="#1485bc"/><stop offset=".49" stop-color="#0ba1cc"/><stop offset=".66" stop-color="#05b4d7"/><stop offset=".83" stop-color="#01c0de"/><stop offset="1" stop-color="#00c4e0"/></linearGradient><linearGradient id="b" x1="82.179063%" x2="34.613457%" xlink:href="#a" y1="-.473917%" y2="114.440607%"/><linearGradient id="c" x1="-31668%" x2="-19806%" xlink:href="#a" y1="78954%" y2="78954%"/><g fill="none" fill-rule="evenodd"><path d="m12 119.400688c54.0643784 5.359137 97.475822-26.6192519 108.304838-40.3221754 10.829017-13.7029234-5.590589-79.0785126-5.590589-79.0785126-17.7989123 43.7258523-50.1612374 109.998307-102.714249 119.422742z" fill="url(#b)"/><path d="m37 101.950582c31.890817 1.174018 56.1649203-18.8796871 62.0165144-27.1932064 5.8515936-8.3135194-3.1075006-45.7573756-3.1075006-45.7573756-8.8626805 25.9384738-33.5224402 63.7345356-58.9090138 72.950582z" fill="url(#c)"/><g fill="#149cb5" fill-rule="nonzero"><path d="m2.08069192 147.61817c.9862305 1.023399 2.15910575 1.855807 3.45773167 2.454006 1.28872385.610322 2.7005903.928008 4.13111924.929548 1.51379827.091222 3.01246697-.340146 4.23704537-1.219567.9904594-.770761 1.5516175-1.956558 1.5132305-3.197644.018065-.603903-.1035238-1.203962-.3556092-1.754987-.231085-.471707-.5581194-.891838-.9609013-1.234439-.4409554-.36712-.9263382-.679331-1.4451352-.929548l-1.7856119-.862621-3.94196546-1.688059c-.67505997-.291146-1.3319476-.621406-1.96719963-.989039-.66485945-.379445-1.27122036-.850204-1.80074429-1.39804-.54713303-.571868-.98763933-1.23388-1.30137822-1.955768-.71940798-1.76117-.66739435-3.736076.1437569-5.458306.43089188-.878706 1.0443173-1.658935 1.80074428-2.290406.80509096-.659137 1.72907309-1.163656 2.72381488-1.487276 1.11408749-.366925 2.28282596-.547901 3.45773167-.53542 1.56319377-.010229 3.11070337.306639 4.53969147.929548 1.3322431.574371 2.5415128 1.391958 3.5636578 2.409388l-1.883972 2.230915c-.8136152-.778349-1.7582026-1.412369-2.7919102-1.873968-1.0901837-.465671-2.2692109-.696417-3.45773168-.676711-1.32236873-.06507-2.62922495.303782-3.71498085 1.04853-.92970684.68064-1.45660266 1.769257-1.40730435 2.907626-.0180028.580278.120336 1.154927.40100608 1.665749.28513287.455467.6577625.852015 1.0970921 1.167513.45708896.350021.94884226.653964 1.46783358.907238.52963067.262752 1.07439364.510632 1.63428892.743639l3.9041347 1.650877c.76915.321676 1.5127118.699509 2.2244488 1.13033.6714194.405996 1.2782039.907153 1.8007443 1.487276.5157937.583677.9207085 1.253677 1.1954521 1.978078.3076601.838884.4563928 1.726056.4388368 2.617607.0023851 1.02588-.2195188 2.040289-.6506891 2.974554-.4376848.939674-1.0748989 1.776411-1.8688397 2.454006-.8616173.730465-1.8583306 1.290968-2.9356671 1.650877-1.2551041.414164-2.5727768.61534-3.89656853.594911-3.63920271.030157-7.12968214-1.417428-9.64684437-4.000774z"/><path d="m22.2883342 155.235743v6.764257h-3.2883342v-28.500664h2.7246197l.2818572 2.306843h.1228609c.8848252-.774343 1.855119-1.438723 2.8908432-1.97942 1.0215032-.541761 2.1537409-.824924 3.3027884-.825998 1.148803-.016577 2.2860332.237978 3.3244697.744142.9541811.473578 1.7806467 1.181446 2.406627 2.061276.6698733.970823 1.1598949 2.060657 1.4454216 3.214696.3487114 1.379675.5164252 2.801217.4986704 4.22673.0250017 1.549098-.2046882 3.091389-.6793481 4.561595-.4039138 1.24156-1.0288743 2.394801-1.8429126 3.400731-.7322002.900507-1.647504 1.624489-2.6812571 2.120807-1.0017028.485561-2.0944627.739548-3.2016088.744143-.933362-.005833-1.8548025-.216387-2.7029384-.617639-.9613868-.453554-1.8684288-1.020411-2.7029384-1.689204zm0-6.146618c.7569639.692293 1.6251109 1.243736 2.5656233 1.629672.6905794.286472 1.4241347.447604 2.1681324.476252.7754504.006897 1.5403923-.184895 2.2259493-.558107.6934724-.382471 1.2957813-.918766 1.7634144-1.570141.5310456-.751689.9252805-1.596317 1.1635644-2.492878.2928224-1.087647.433959-2.21264.4191722-3.341201.0056584-.999528-.0887935-1.996992-.2818572-2.97657-.1559967-.828037-.4624996-1.618279-.9033885-2.329167-.4043574-.627469-.9562779-1.13944-1.604418-1.488285-.7259696-.37383-1.5301719-.557841-2.341583-.535783-.8772577.013922-1.7370762.254442-2.5005794.699494-.9729866.566364-1.8798606 1.245467-2.7029384 2.024068z"/><path d="m39.5021485 129.287598c-.6559158.017059-1.2936801-.199994-1.7804572-.605951-.4607158-.402595-.7216913-.96228-.7216913-1.547731s.2609755-1.145136.7216913-1.547731c1.0328408-.78158 2.5201604-.78158 3.5530012 0 .4628352.401512.7253075.961601.7253075 1.547731s-.2624723 1.146219-.7253075 1.547731c-.4843498.404847-1.1192029.621874-1.772544.605951zm-1.8437624 4.044541h3.6004801v19.667861h-3.6004801z"/><path d="m44 133.480418h2.8118081l.2878229 2.811284h.1254613c.903139-.896396 1.9114162-1.684427 3.00369-2.347567 1.1154961-.647986 2.3943303-.974424 3.6900369-.941925 2.100861 0 3.6359163.642441 4.605166 1.927324.9692497 1.284882 1.4612547 3.185638 1.4760148 5.702268v12.368198h-3.3579336v-11.926218c0-1.845207-.300123-3.175977-.900369-3.992312-.6839097-.855091-1.759943-1.315234-2.8634686-1.224503-.9692831-.018306-1.9222591.246489-2.7380074.760786-.974325.658511-1.8791891 1.410958-2.701107 2.246128v14.136119h-3.3579336z"/><path d="m62 133.480468h2.7874307l.2883549 2.811277h.1256931c.9048084-.896394 1.9149494-1.684422 3.0092422-2.347561 1.1174029-.64835 2.39871-.974814 3.6968577-.941922 2.1047443 0 3.6426371.642439 4.6136783 1.927318.9710413 1.284879 1.4639557 3.18563 1.4787431 5.702254v12.368166h-3.4306839v-11.926187c0-1.845202-.3006778-3.17597-.9020333-3.992303-.6851739-.855088-1.7631962-1.31523-2.8687615-1.224499-.9710748-.018306-1.9258123.246488-2.7430684.760784-.976126.658509-1.8826627 1.410954-2.7060999 2.246122v14.136083h-3.349353z"/><path d="m80.0079153 148.312629c-.0499102-2.109742 1.1207841-4.064769 3.0207026-5.04449 2.0138016-1.168875 5.1880565-1.986098 9.5227647-2.451667.0004856-.621309-.0627662-1.24108-.1887939-1.849894-.1149958-.573065-.3433592-1.118307-.6721064-1.604727-.3280455-.470937-.7655757-.858073-1.2762468-1.129252-.6368597-.311578-1.3434194-.459799-2.0540777-.430899-1.1448524-.010704-2.2792994.21453-3.3303245.661207-.9597352.408354-1.8776601.905897-2.7412876 1.485858l-1.3819714-2.347656c1.1034889-.683426 2.2658969-1.270121 3.4738079-1.753313 1.4375575-.57765 2.9783208-.865647 4.5310538-.84694 2.4820106 0 4.2818459.74293 5.3995058 2.228788 1.1965718 1.767725 1.7842725 3.866847 1.6764899 5.98801v12.280621h-2.8470121l-.2945185-2.384803h-.0830694c-.9717282.792263-2.0305287 1.475054-3.1566341 2.035626-1.1077092.558414-2.3348612.848765-3.5795325.84694-1.5692584.05558-3.101737-.475275-4.2893976-1.485859-1.1825026-1.076406-1.8163646-2.614941-1.7293522-4.19755zm3.3907386-.245167c-.0943491.940964.2900846 1.866997 1.0270389 2.473955.7389446.511245 1.6269406.77202 2.5298383.742929.9718465.000915 1.9289406-.23384 2.7865981-.683495 1.0116938-.546529 1.9481611-1.21814 2.7865981-1.99848v-5.557111c-1.4522286.172935-2.8922904.433451-4.3120529.780076-.9858557.230716-1.9357842.590533-2.8243568 1.069818-.6211634.3346-1.1420157.823947-1.5103513 1.418995-.3151927.532388-.4819155 1.137208-.4833124 1.753313z"/><path d="m97 124h3.40455v19.637101h.128902l8.697146-10.428535h3.791257l-6.824264 7.9445 7.802409 11.846934h-3.791258l-5.96744-9.553979-3.791257 4.321338v5.210593h-3.4045499z"/><path d="m111.003085 143.58513c-.03435-1.517875.218419-3.028627.745105-4.453357.46108-1.220334 1.148609-2.343323 2.026687-3.310328.80413-.880153 1.780313-1.58736 2.868655-2.078233 1.049176-.482536 2.189937-.735621 3.345523-.742226 1.168789-.017864 2.328489.207113 3.405131.660582.979809.420404 1.843628 1.069583 2.518456 1.892676.704943.880188 1.231321 1.888541 1.549819 2.968904.372364 1.254933.553211 2.558501.536475 3.866998.0073.618426-.035057 1.236443-.126667 1.848143h-13.501308c.02953 1.898058.740583 3.722801 2.004333 5.143626 1.217856 1.270648 2.924405 1.959819 4.686712 1.892676.907383.010214 1.809747-.135414 2.667477-.430491.816695-.28944 1.598824-.667792 2.33218-1.128183l1.199619 2.226678c-.930224.572152-1.913276 1.054323-2.935715 1.439918-1.176117.428209-2.421332.63704-3.673369.616048-1.29602.002941-2.579846-.2493-3.777683-.742226-1.150633-.466479-2.191058-1.166684-3.054932-2.055966-.897518-.940947-1.592293-2.054859-2.041589-3.273217-.520098-1.388663-.782662-2.859882-.774909-4.342022zm14.045235-1.521564c0-2.05844-.434645-3.629485-1.303935-4.713135-.887944-1.09399-2.24807-1.698301-3.658467-1.625475-.703492-.002501-1.399454.14425-2.041588.430491-.659753.295078-1.256658.713312-1.758449 1.232095-.550635.574374-.992395 1.243255-1.303934 1.974322-.362761.858348-.591426 1.766973-.678046 2.69428z"/><path d="m129.007397 133.450681h2.788837l.2885 3.541228h.125757c.607408-1.128635 1.452061-2.117975 2.478144-2.902646.905304-.703485 2.025973-1.086973 3.180901-1.088492.730599-.012341 1.455917.123537 2.130464.399114l-.658373 2.902646c-.295716-.097327-.597079-.177292-.902488-.239468-.339367-.058731-.683685-.085461-1.028245-.079823-.971573.042525-1.902016.396909-2.648285 1.008669-1.10392.934215-1.931697 2.142217-2.396772 3.497688v12.510403h-3.365837z"/></g></g></svg>