<svg enable-background="new 0 0 100 134" viewBox="0 0 100 134" xmlns="http://www.w3.org/2000/svg"><g fill="#453f3f"><path d="m50 1c-27 0-49 22-49 49s22 49 49 49 49-22 49-49-22-49-49-49zm-37.5 23.3c8.4-12.3 22.5-19.8 37.5-19.8 14.9 0 29 7.5 37.4 19.7.2.2.2.5.2.8 0 .8-.6 1.4-1.4 1.4h-72.6c-.7-.1-1.3-.7-1.3-1.4 0-.3 0-.5.2-.7zm22 30.8c0-.2.1-.5.2-.7l14.4-21.1c.1-.1.1-.2.2-.4.3-.3.7-.5 1.2-.5s.9.2 1.2.5c.1.1.2.2.2.4l20.2 30.5v.1c.1.2.1.4.1.5 0 .7-.5 1.2-1.2 1.2-.1 0-.1 0-.2 0h-.1l-35.4-9.3c-.4-.2-.8-.7-.8-1.2zm-26.1-23.5c.2-.4.6-1 1.1-1.3.6-.4 1.4-.4 1.9-.4h33.3c.4 0 1.1.1 1.4.5s0 1-.1 1.3c0 .1 0 .1-.1.1 0 .1-.1.1-.1.1l-30.4 44.5c-.3.4-.7.7-1.3.7-.5 0-1-.3-1.2-.7-5.5-7.7-8.5-17-8.5-26.4.1-6.4 1.4-12.6 4-18.4zm73.5 50.8c0 .1 0 .1 0 0-8.5 8.4-20.1 13.1-31.9 13.1s-23.3-4.7-31.8-13c0 0 0 0 0-.1-.2-.2-.7-1-.7-1.8 0-.7.3-1.4.5-1.6.1-.1.1-.1.1-.1l.2-.3 11.4-16.8s.1-.1.2-.2c0 0 0-.1.1-.1.3-.4 1.1-1.2 2.2-1.5 1.2-.4 2.6-.2 3.2-.1h.2.1l39.3 10.4c1.3.4 2.3 1.3 2.8 2l4.1 6.2.2.3s0 .1.1.1c.1.3.5.9.4 1.6 0 1-.5 1.7-.7 1.9zm3.9-5.2c-.5 0-.8-.2-1.1-.6l-29.6-44.8c-.1-.2-.6-1-.2-1.5.3-.4 1-.5 1.4-.5h32.3c.6 0 1.3 0 1.9.4.5.3.9.9 1.1 1.3v.1c2.6 5.8 3.9 12 3.9 18.4 0 9.6-3.1 19-8.8 26.8-.2.2-.5.4-.9.4z"/><path clip-rule="evenodd" d="m82.4 119.9c-1.2-.9-2.4-1.4-3.8-1.4s-2.5.4-3.4 1.2c-.9.9-1.4 2.2-1.4 4s.6 3.4 1.9 4.7c1.3 1.4 2.8 2.1 4.6 2.1 1.4 0 2.5-.4 3.2-1.1.8-.8 1.2-2.1 1.2-3.9.1-2.5-.7-4.3-2.3-5.6zm2.6 9.3c-.9 1.1-2.2 2.1-3.8 2.9-.5.3-1 .5-1.5.6-.5.2-.8.2-1.1.2-2 0-3.6-.8-5-2.5-1.3-1.6-1.9-3.3-1.9-5.1 0-2 .6-3.8 1.8-5.3.9-1.3 2.2-2.3 3.7-3.1.7-.3 1.3-.6 1.8-.7.5-.2 1-.3 1.4-.3.6 0 1.3.2 2.2.6 1.2.5 2.2 1.3 3 2.3 1 1.4 1.5 3 1.5 4.8-.1 2.1-.8 4-2.1 5.6zm-21.3-11.8c-.3.2-.7.3-1.3.3h-1.9v15.3h-2.6v-15c-.2-.2-.5-.3-.8-.3l-1.1-.1-2 .1c0-.6.2-1.1.6-1.4l.7-.3h9c0 .6-.2 1.1-.6 1.4zm-18.2 14.6c0 .1 0 .2-.1.3v.2l-.1.6h-7.7v-16.8l.7-.1.7-.2h.7c.1 0 .3.1.5.2v14.7l.3.4h5c.1.3.1.5 0 .7zm-26.4-11.1-1.1 3-.6 1.7h3.5zm4.7 12.1-2.2-5.6h-3.9c-.7 0-1.2.3-1.4.8-.3.5-.8 2.1-1.6 4.8h-1.7c.1-.4.3-1 .5-1.5.4-1.1.8-2.1 1.1-3 1-2.7 1.8-4.8 2.3-6.3.8-2.5 1.2-4.4 1.2-5.6l1-.3 1-.3 6.9 17z" fill-rule="evenodd"/></g></svg>