<svg enable-background="new 0 0 175.3 60.4" viewBox="0 0 175.3 60.4" xmlns="http://www.w3.org/2000/svg"><path d="m28.3 18c1.9 2.2 3.4 4.7 4.5 7.4-5 5.2-11.4 8.9-18.6 10.7-1.8-2.3-3.1-4.9-4.1-7.6 10.2-1.7 15.9-7.7 18.2-10.5z" fill="#1ac604"/><path d="m14.4 0c-1.8 2.3-3.2 4.9-4.2 7.6 8.5 1.5 14.2 5.8 18.1 10.5 1.9-2.2 3.4-4.7 4.5-7.4-4.9-5.2-11.3-8.9-18.4-10.7z" fill="#6817ff"/><path d="m1.5 28.8c-2-6.9-2-14.1 0-21.4 1.9-.2 4.9-.4 8.7.2-2.8 7.5-2.3 14.9-.1 21-2.9.4-5.9.5-8.6.2z"/><path d="m44.1 19.6c0-7.6 5-12 10.9-12 2.9 0 5.3 1.4 6.9 3l-2.7 3.3c-1.2-1.1-2.4-1.8-4.1-1.8-3.1 0-5.6 2.8-5.6 7.4 0 4.7 2.2 7.5 5.6 7.5 1.9 0 3.3-.9 4.4-2.2l2.7 3.2c-1.9 2.2-4.4 3.4-7.4 3.4-5.8 0-10.7-4.1-10.7-11.8z"/><path d="m64.2 25.5v-19.2h5.2v19.5c0 1.1.5 1.5.9 1.5h.6l.6 3.8c-.6.2-1.5.4-2.6.4-3.5-.1-4.7-2.5-4.7-6z"/><path d="m72.6 26.1c0-3.7 2.9-5.7 9.8-6.4-.1-1.6-.8-2.5-2.7-2.5-1.5 0-2.9.6-4.6 1.6l-1.9-3.4c2.2-1.3 4.7-2.3 7.5-2.3 4.4 0 6.9 2.5 6.9 7.9v10h-4.2l-.3-1.8h-.1c-1.5 1.3-3.1 2.2-5.1 2.2-3.3 0-5.3-2.4-5.3-5.3zm9.9-.2v-3.1c-3.7.5-4.8 1.6-4.8 2.9 0 1.1.8 1.7 2 1.7 1.1 0 1.9-.6 2.8-1.5z"/><path d="m91.2 13.5h4.2l.3 3.1h.1c1.3-2.3 3.2-3.5 5-3.5 1 0 1.6.1 2.1.3l-.8 4.4c-.6-.2-1.2-.3-1.9-.3-1.3 0-2.9.8-3.8 3.2v10.3h-5.2z"/><path d="m104.1 8.2c0-1.6 1.3-2.7 3-2.7 1.8 0 3 1.1 3 2.7s-1.2 2.7-3 2.7c-1.8.1-3-1.1-3-2.7zm.4 5.3h5.2v17.5h-5.2z"/><path d="m111.4 13.5h5.2l2.2 8.2c.4 1.7.9 3.6 1.4 5.4h.1c.4-1.8.9-3.7 1.3-5.4l2.3-8.2h5l-5.6 17.5h-6z"/><path d="m129.8 26.1c0-3.7 2.9-5.7 9.8-6.4-.1-1.6-.8-2.5-2.7-2.5-1.5 0-2.9.6-4.6 1.6l-1.9-3.4c2.2-1.3 4.7-2.3 7.5-2.3 4.4 0 6.9 2.5 6.9 7.9v10h-4.2l-.3-1.8h-.1c-1.5 1.3-3.1 2.2-5.1 2.2-3.3 0-5.3-2.4-5.3-5.3zm9.9-.2v-3.1c-3.7.5-4.8 1.6-4.8 2.9 0 1.1.8 1.7 2 1.7 1.1 0 1.8-.6 2.8-1.5z"/><path d="m148.9 24.6v-7.1h-2.4v-3.8l2.7-.2.6-4.6h4.3v4.6h4.2v4.1h-4.3v7c0 2 .9 2.8 2.2 2.8.6 0 1.2-.2 1.7-.3l.8 3.8c-.9.3-2.2.6-3.9.6-4.3-.1-5.9-2.8-5.9-6.9z"/><path d="m159.6 22.2c0-5.7 4.1-9.1 8.2-9.1 5 0 7.4 3.6 7.4 8.4 0 .9-.1 1.9-.2 2.3h-10.5c.4 2.5 2.2 3.7 4.5 3.7 1.3 0 2.5-.4 3.8-1.2l1.7 3.1c-1.8 1.2-4.1 2-6.2 2-4.8 0-8.7-3.4-8.7-9.2zm11.3-1.9c0-2-.8-3.3-2.9-3.3-1.6 0-3 1.1-3.4 3.3z"/><path d="m50.3 38.3h3.5l5.5 16.9h-3.1l-1.3-4.6h-5.7l-1.3 4.5h-3zm-.4 10h4.3l-.6-2.1c-.5-1.8-1-3.7-1.5-5.6h-.1c-.4 1.9-.9 3.8-1.5 5.6z"/><path d="m60.5 42.5h2.5l.2 1.7h.1c1.1-1.1 2.4-2 4.2-2 2.7 0 3.9 1.8 3.9 5v7.9h-3v-7.5c0-2.1-.6-2.9-2-2.9-1.1 0-1.8.5-2.9 1.6v8.9h-3z"/><path d="m73.3 51.8c0-2.7 2.2-4.1 7.4-4.7 0-1.3-.6-2.5-2.3-2.5-1.2 0-2.4.6-3.6 1.2l-1.1-2c1.4-.9 3.2-1.7 5.2-1.7 3.1 0 4.7 2 4.7 5.5v7.5h-2.4l-.2-1.4h-.1c-1.1 1-2.4 1.7-3.9 1.7-2.2.1-3.7-1.4-3.7-3.6zm7.4 0v-2.8c-3.5.4-4.6 1.3-4.6 2.6 0 1.1.8 1.6 1.8 1.6 1.1 0 1.9-.5 2.8-1.4z"/><path d="m86.3 51.9v-14.9h3v15.1c0 .7.3 1 .6 1h.4l.4 2.2c-.3.1-.9.2-1.6.2-2 0-2.8-1.4-2.8-3.6z"/><path d="m91.4 60.1.5-2.3c.2.1.6.2.9.2 1.3 0 2.1-.9 2.5-2.2l.2-.8-5-12.5h3l2.2 6.2c.3 1.1.7 2.3 1.1 3.6h.1c.3-1.2.6-2.4 1-3.6l1.9-6.2h2.9l-4.6 13.2c-1.1 2.8-2.3 4.6-5.1 4.6-.6.1-1.1 0-1.6-.2z"/><path d="m105.2 50.9v-6h-1.8v-2.2l2-.1.3-3.5h2.5v3.5h3.2v2.3h-3.2v6c0 1.5.6 2.2 1.8 2.2.4 0 1-.1 1.3-.3l.5 2.2c-.7.2-1.6.4-2.6.4-2.9.1-4-1.8-4-4.5z"/><path d="m112.8 38.6c0-1 .8-1.7 1.8-1.7s1.8.7 1.8 1.7-.8 1.7-1.8 1.7-1.8-.7-1.8-1.7zm.4 3.9h3v12.7h-3z"/><path d="m118.1 48.9c0-4.2 3-6.7 6.4-6.7 1.6 0 2.8.6 3.7 1.4l-1.5 2c-.7-.6-1.3-.9-2.1-.9-2.1 0-3.5 1.7-3.5 4.2s1.4 4.2 3.4 4.2c1 0 1.9-.5 2.6-1.1l1.2 2c-1.2 1-2.7 1.6-4.1 1.6-3.5-.1-6.1-2.5-6.1-6.7z"/><path d="m129.2 53.7 1.4-1.9c1.1.9 2.2 1.4 3.5 1.4 1.4 0 2-.6 2-1.5 0-1.1-1.4-1.5-2.7-2.1-1.7-.6-3.6-1.6-3.6-3.7 0-2.2 1.8-3.8 4.6-3.8 1.8 0 3.2.7 4.2 1.5l-1.4 1.8c-.9-.6-1.8-1.1-2.8-1.1-1.3 0-1.9.6-1.9 1.4 0 1 1.3 1.4 2.6 1.9 1.7.6 3.6 1.5 3.6 3.9 0 2.2-1.7 3.9-4.9 3.9-1.6.1-3.4-.7-4.6-1.7z"/></svg>