<svg enable-background="new 0 0 1000 612" viewBox="200 140 600 400" xmlns="http://www.w3.org/2000/svg"><g fill="#485159"><path d="m443.219 435.701c-.263 0-.409-.236-.643-.557l-8.409-11.619-6.247 6.339v4.813c0 .555-.087 1.023-.557 1.023-.464 0-.524-.468-.524-1.023v-18.247c0-.552.06-1.02.524-1.02.469 0 .557.468.557 1.02v11.854l12.204-12.379c.206-.202.467-.495.729-.495.322 0 .498.205.498.437 0 .32-.265.672-.498.907l-5.926 6.07 8.525 11.826c.147.205.293.38.293.673 0 .203-.205.378-.526.378z" stroke="#485159" stroke-width=".25"/><path d="m463.039 435.555h-13.781c-.29 0-.435-.147-.435-.437v-19.124c0-.29.145-.437.435-.437h13.111c.698 0 .875.263.875.522 0 .266-.177.557-.875.557h-12.466v7.913h6.802c.7 0 .877.263.877.525 0 .263-.177.557-.877.557h-6.802v8.842h13.136c.73 0 .875.266.875.528 0 .263-.174.554-.875.554z" stroke="#485159" stroke-width=".25"/><path d="m486.277 435.701c-.408 0-.467-.09-.761-.468l-13.749-18.099v17.516c0 .584 0 1.052-.554 1.052-.525 0-.525-.498-.525-1.082v-17.866c0-1.17 0-1.344.641-1.344.553 0 .643.232 1.023.73l13.312 17.634v-17.197c0-.935 0-1.314.556-1.314.525 0 .525.406.525 1.314v17.957c-.001.642-.001 1.167-.468 1.167z" stroke="#485159" stroke-width=".25"/><path d="m506.652 435.555h-13.282c-.789 0-1.198 0-1.198-.525 0-.175.293-.669.527-.994l13.807-17.401h-11.853c-1.547 0-1.984 0-1.984-.557 0-.522.437-.522 1.984-.522h12.115c.438 0 1.082.027 1.082.468 0 .405-.32.872-.616 1.255l-13.573 17.193h12.991c.7 0 1.312 0 1.312.557 0 .526-.612.526-1.312.526z" stroke="#485159" stroke-width=".25"/><path d="m529.655 435.701c-.437 0-.61-.468-.787-.818l-2.481-5.401h-11.739l-2.829 5.694c-.117.203-.233.525-.555.525-.295 0-.586-.147-.586-.498 0-.202.207-.525.325-.757l9.136-18.511c.233-.47.38-.672.675-.672.289 0 .434.202.64.672l8.467 18.653c.06.178.233.498.233.676 0 .144-.06.437-.499.437zm-8.875-18.742-5.606 11.441h10.776z" stroke="#485159" stroke-width=".25"/><path d="m550.879 435.701c-.408 0-.467-.09-.76-.468l-13.75-18.099v17.516c0 .584 0 1.052-.554 1.052-.524 0-.524-.498-.524-1.082v-17.866c0-1.17 0-1.344.639-1.344.556 0 .642.232 1.022.73l13.315 17.634v-17.197c0-.935 0-1.314.55-1.314.527 0 .527.406.527 1.314v17.957c0 .642 0 1.167-.465 1.167z" stroke="#485159" stroke-width=".25"/><path d="m509.892 133.972s-12.097 65.493-12.097 130.184c0 64.684 10.591 131.983 10.591 131.983s10.422-77.202 10.413-123.934c.002-46.721-8.907-138.233-8.907-138.233z"/></g><path d="m472.831 236.117s-10.766 39.144-10.766 77.385c0 38.233 9.417 82.638 9.417 82.638s9.261-50.263 9.261-77.878c.001-27.624-7.912-82.145-7.912-82.145z" fill="#c9cacc"/><path d="m436.581 278.399s-9.881 31.661-9.881 63.085c0 31.418 8.646 54.655 8.646 54.655s8.506-31.872 8.503-54.575c0-22.692-7.268-63.165-7.268-63.165z" fill="#c9cacc"/><path d="m544.056 284.856s-10.102 29.851-10.102 59.636c0 29.774 8.841 51.647 8.841 51.647s8.691-30.049 8.688-51.566c0-21.512-7.427-59.717-7.427-59.717z" fill="#c9cacc"/></svg>